BenchNine-Regular.ufo
<glyph name="numbersign" format="1">
  <advance width="713"/>
  <unicode hex="0023"/>
  <outline>
    <contour>
      <point x="277" y="447" type="line"/>
      <point x="421" y="447" type="line"/>
      <point x="453" y="866" type="line"/>
      <point x="310" y="866" type="line"/>
    </contour>
    <contour>
      <point x="147" y="-173" type="line" smooth="yes"/>
      <point x="141" y="-173"/>
      <point x="137" y="-155"/>
      <point x="139" y="-138" type="curve" smooth="yes"/>
      <point x="175" y="328" type="line"/>
      <point x="115" y="328" type="line" smooth="yes"/>
      <point x="100" y="328"/>
      <point x="92" y="337"/>
      <point x="92" y="374" type="curve" smooth="yes"/>
      <point x="92" y="401" type="line" smooth="yes"/>
      <point x="92" y="439"/>
      <point x="97" y="447"/>
      <point x="112" y="447" type="curve" smooth="yes"/>
      <point x="187" y="447" type="line"/>
      <point x="220" y="866" type="line"/>
      <point x="152" y="866" type="line" smooth="yes"/>
      <point x="138" y="866"/>
      <point x="128" y="874"/>
      <point x="128" y="912" type="curve" smooth="yes"/>
      <point x="128" y="942" type="line" smooth="yes"/>
      <point x="128" y="974"/>
      <point x="136" y="988"/>
      <point x="151" y="988" type="curve" smooth="yes"/>
      <point x="233" y="988" type="line"/>
      <point x="278" y="1504" type="line" smooth="yes"/>
      <point x="280" y="1525"/>
      <point x="288" y="1539"/>
      <point x="294" y="1539" type="curve" smooth="yes"/>
      <point x="359" y="1539" type="line" smooth="yes"/>
      <point x="365" y="1539"/>
      <point x="368" y="1521"/>
      <point x="367" y="1504" type="curve" smooth="yes"/>
      <point x="323" y="988" type="line"/>
      <point x="467" y="988" type="line"/>
      <point x="512" y="1504" type="line" smooth="yes"/>
      <point x="514" y="1525"/>
      <point x="521" y="1539"/>
      <point x="528" y="1539" type="curve" smooth="yes"/>
      <point x="591" y="1539" type="line" smooth="yes"/>
      <point x="597" y="1539"/>
      <point x="600" y="1521"/>
      <point x="598" y="1504" type="curve" smooth="yes"/>
      <point x="554" y="988" type="line"/>
      <point x="616" y="988" type="line" smooth="yes"/>
      <point x="630" y="988"/>
      <point x="638" y="974"/>
      <point x="638" y="942" type="curve" smooth="yes"/>
      <point x="638" y="912" type="line" smooth="yes"/>
      <point x="638" y="874"/>
      <point x="632" y="866"/>
      <point x="618" y="866" type="curve" smooth="yes"/>
      <point x="541" y="866" type="line"/>
      <point x="509" y="447" type="line"/>
      <point x="576" y="447" type="line" smooth="yes"/>
      <point x="592" y="447"/>
      <point x="603" y="439"/>
      <point x="603" y="401" type="curve" smooth="yes"/>
      <point x="603" y="374" type="line" smooth="yes"/>
      <point x="603" y="337"/>
      <point x="595" y="328"/>
      <point x="579" y="328" type="curve" smooth="yes"/>
      <point x="496" y="328" type="line"/>
      <point x="459" y="-138" type="line" smooth="yes"/>
      <point x="457" y="-159"/>
      <point x="450" y="-173"/>
      <point x="443" y="-173" type="curve" smooth="yes"/>
      <point x="380" y="-173" type="line" smooth="yes"/>
      <point x="374" y="-173"/>
      <point x="371" y="-155"/>
      <point x="372" y="-138" type="curve" smooth="yes"/>
      <point x="409" y="328" type="line"/>
      <point x="265" y="328" type="line"/>
      <point x="228" y="-138" type="line" smooth="yes"/>
      <point x="226" y="-159"/>
      <point x="219" y="-173"/>
      <point x="211" y="-173" type="curve" smooth="yes"/>
    </contour>
  </outline>
</glyph>
<glyph name="percent" format="1">
  <advance width="1017"/>
  <unicode hex="0025"/>
  <outline>
    <contour>
      <point x="808" y="-1" type="curve" smooth="yes"/>
      <point x="697" y="-1"/>
      <point x="636" y="137"/>
      <point x="636" y="402" type="curve" smooth="yes"/>
      <point x="636" y="665"/>
      <point x="695" y="806"/>
      <point x="808" y="806" type="curve" smooth="yes"/>
      <point x="919" y="806"/>
      <point x="978" y="665"/>
      <point x="978" y="402" type="curve" smooth="yes"/>
      <point x="978" y="137"/>
      <point x="917" y="-1"/>
    </contour>
    <contour>
      <point x="808" y="101" type="curve" smooth="yes"/>
      <point x="866" y="101"/>
      <point x="892" y="216"/>
      <point x="892" y="400" type="curve" smooth="yes"/>
      <point x="892" y="588"/>
      <point x="867" y="704"/>
      <point x="808" y="704" type="curve" smooth="yes"/>
      <point x="749" y="704"/>
      <point x="722" y="588"/>
      <point x="722" y="400" type="curve" smooth="yes"/>
      <point x="722" y="216"/>
      <point x="750" y="101"/>
    </contour>
    <contour>
      <point x="198" y="642" type="curve" smooth="yes"/>
      <point x="87" y="642"/>
      <point x="26" y="779"/>
      <point x="26" y="1044" type="curve" smooth="yes"/>
      <point x="26" y="1307"/>
      <point x="85" y="1448"/>
      <point x="198" y="1448" type="curve" smooth="yes"/>
      <point x="310" y="1448"/>
      <point x="369" y="1307"/>
      <point x="369" y="1044" type="curve" smooth="yes"/>
      <point x="369" y="779"/>
      <point x="308" y="642"/>
    </contour>
    <contour>
      <point x="198" y="743" type="curve" smooth="yes"/>
      <point x="257" y="743"/>
      <point x="283" y="858"/>
      <point x="283" y="1042" type="curve" smooth="yes"/>
      <point x="283" y="1230"/>
      <point x="257" y="1346"/>
      <point x="198" y="1346" type="curve" smooth="yes"/>
      <point x="139" y="1346"/>
      <point x="112" y="1230"/>
      <point x="112" y="1042" type="curve" smooth="yes"/>
      <point x="112" y="858"/>
      <point x="140" y="743"/>
    </contour>
    <contour>
      <point x="364" y="-82" type="line" smooth="yes"/>
      <point x="354" y="-82"/>
      <point x="346" y="-58"/>
      <point x="346" y="-32" type="curve" smooth="yes"/>
      <point x="346" y="-25"/>
      <point x="347" y="-19"/>
      <point x="348" y="-12" type="curve" smooth="yes"/>
      <point x="571" y="1466" type="line" smooth="yes"/>
      <point x="578" y="1508"/>
      <point x="593" y="1536"/>
      <point x="608" y="1536" type="curve" smooth="yes"/>
      <point x="640" y="1536" type="line" smooth="yes"/>
      <point x="649" y="1536"/>
      <point x="656" y="1514"/>
      <point x="656" y="1489" type="curve" smooth="yes"/>
      <point x="656" y="1481"/>
      <point x="655" y="1474"/>
      <point x="654" y="1466" type="curve" smooth="yes"/>
      <point x="432" y="-12" type="line" smooth="yes"/>
      <point x="425" y="-54"/>
      <point x="411" y="-82"/>
      <point x="395" y="-82" type="curve" smooth="yes"/>
    </contour>
  </outline>
</glyph>
<glyph name="parenright" format="1">
  <advance width="429"/>
  <unicode hex="0029"/>
  <outline>
    <contour>
      <point x="124" y="-143" type="curve" smooth="yes"/>
      <point x="123" y="-143"/>
      <point x="122" y="-144"/>
      <point x="121" y="-144" type="curve" smooth="yes"/>
      <point x="109" y="-144"/>
      <point x="98" y="-108"/>
      <point x="98" y="-73" type="curve" smooth="yes"/>
      <point x="98" y="-17" type="line" smooth="yes"/>
      <point x="98" y="52"/>
      <point x="108" y="61"/>
      <point x="129" y="92" type="curve" smooth="yes"/>
      <point x="174" y="158"/>
      <point x="209" y="334"/>
      <point x="209" y="698" type="curve" smooth="yes"/>
      <point x="209" y="1062"/>
      <point x="174" y="1240"/>
      <point x="129" y="1306" type="curve" smooth="yes"/>
      <point x="109" y="1337"/>
      <point x="98" y="1347"/>
      <point x="98" y="1416" type="curve" smooth="yes"/>
      <point x="98" y="1470" type="line" smooth="yes"/>
      <point x="98" y="1505"/>
      <point x="109" y="1541"/>
      <point x="121" y="1541" type="curve" smooth="yes"/>
      <point x="122" y="1541"/>
      <point x="123" y="1540"/>
      <point x="124" y="1540" type="curve" smooth="yes"/>
      <point x="269" y="1477"/>
      <point x="326" y="1098"/>
      <point x="326" y="698" type="curve" smooth="yes"/>
      <point x="326" y="297"/>
      <point x="269" y="-81"/>
    </contour>
  </outline>
</glyph>
<glyph name="plus" format="1">
  <advance width="801"/>
  <unicode hex="002B"/>
  <outline>
    <contour>
      <point x="380" y="283" type="line" smooth="yes"/>
      <point x="361" y="283"/>
      <point x="347" y="287"/>
      <point x="347" y="328" type="curve" smooth="yes"/>
      <point x="347" y="531" type="line" smooth="yes"/>
      <point x="347" y="551"/>
      <point x="341" y="553"/>
      <point x="332" y="553" type="curve" smooth="yes"/>
      <point x="149" y="553" type="line" smooth="yes"/>
      <point x="132" y="553"/>
      <point x="118" y="557"/>
      <point x="118" y="593" type="curve" smooth="yes"/>
      <point x="118" y="618" type="line" smooth="yes"/>
      <point x="118" y="654"/>
      <point x="132" y="657"/>
      <point x="149" y="657" type="curve" smooth="yes"/>
      <point x="332" y="657" type="line" smooth="yes"/>
      <point x="341" y="657"/>
      <point x="347" y="659"/>
      <point x="347" y="679" type="curve" smooth="yes"/>
      <point x="347" y="875" type="line" smooth="yes"/>
      <point x="347" y="916"/>
      <point x="361" y="920"/>
      <point x="380" y="920" type="curve" smooth="yes"/>
      <point x="435" y="920" type="line" smooth="yes"/>
      <point x="453" y="920"/>
      <point x="466" y="916"/>
      <point x="466" y="875" type="curve" smooth="yes"/>
      <point x="466" y="679" type="line" smooth="yes"/>
      <point x="466" y="659"/>
      <point x="473" y="657"/>
      <point x="483" y="657" type="curve" smooth="yes"/>
      <point x="663" y="657" type="line" smooth="yes"/>
      <point x="679" y="657"/>
      <point x="694" y="654"/>
      <point x="694" y="618" type="curve" smooth="yes"/>
      <point x="694" y="593" type="line" smooth="yes"/>
      <point x="694" y="557"/>
      <point x="679" y="553"/>
      <point x="663" y="553" type="curve" smooth="yes"/>
      <point x="483" y="553" type="line" smooth="yes"/>
      <point x="473" y="553"/>
      <point x="466" y="551"/>
      <point x="466" y="531" type="curve" smooth="yes"/>
      <point x="466" y="328" type="line" smooth="yes"/>
      <point x="466" y="287"/>
      <point x="453" y="283"/>
      <point x="435" y="283" type="curve" smooth="yes"/>
    </contour>
  </outline>
</glyph>
<glyph name="comma" format="1">
  <advance width="366"/>
  <unicode hex="002C"/>
  <outline>
    <contour>
      <point x="108" y="-301" type="curve" smooth="yes"/>
      <point x="106" y="-302"/>
      <point x="103" y="-303"/>
      <point x="101" y="-303" type="curve" smooth="yes"/>
      <point x="92" y="-303"/>
      <point x="85" y="-291"/>
      <point x="85" y="-262" type="curve" smooth="yes"/>
      <point x="85" y="-247" type="line" smooth="yes"/>
      <point x="85" y="-208"/>
      <point x="89" y="-209"/>
      <point x="107" y="-185" type="curve" smooth="yes"/>
      <point x="135" y="-145"/>
      <point x="150" y="-69"/>
      <point x="150" y="-27" type="curve" smooth="yes"/>
      <point x="150" y="-11"/>
      <point x="150" y="0"/>
      <point x="144" y="0" type="curve" smooth="yes"/>
      <point x="102" y="0" type="line" smooth="yes"/>
      <point x="88" y="0"/>
      <point x="81" y="17"/>
      <point x="81" y="55" type="curve" smooth="yes"/>
      <point x="81" y="181" type="line" smooth="yes"/>
      <point x="81" y="224"/>
      <point x="96" y="242"/>
      <point x="111" y="242" type="curve" smooth="yes"/>
      <point x="209" y="242" type="line" smooth="yes"/>
      <point x="224" y="242"/>
      <point x="236" y="217"/>
      <point x="236" y="174" type="curve" smooth="yes"/>
      <point x="236" y="64" type="line" smooth="yes"/>
      <point x="236" y="-174"/>
      <point x="156" y="-278"/>
    </contour>
  </outline>
</glyph>
<glyph name="zero" format="1">
  <advance width="860"/>
  <unicode hex="0030"/>
  <outline>
    <contour>
      <point x="428" y="-14" type="curve" smooth="yes"/>
      <point x="250" y="-14"/>
      <point x="99" y="137"/>
      <point x="99" y="726" type="curve" smooth="yes"/>
      <point x="99" y="1328"/>
      <point x="250" y="1453"/>
      <point x="428" y="1453" type="curve" smooth="yes"/>
      <point x="607" y="1453"/>
      <point x="759" y="1331"/>
      <point x="759" y="726" type="curve" smooth="yes"/>
      <point x="759" y="137"/>
      <point x="607" y="-14"/>
    </contour>
    <contour>
      <point x="429" y="114" type="curve" smooth="yes"/>
      <point x="554" y="114"/>
      <point x="605" y="277"/>
      <point x="605" y="726" type="curve" smooth="yes"/>
      <point x="605" y="1160"/>
      <point x="556" y="1324"/>
      <point x="428" y="1324" type="curve" smooth="yes"/>
      <point x="300" y="1324"/>
      <point x="252" y="1159"/>
      <point x="252" y="726" type="curve" smooth="yes"/>
      <point x="252" y="280"/>
      <point x="304" y="114"/>
    </contour>
  </outline>
</glyph>
<glyph name="two" format="1">
  <advance width="739"/>
  <unicode hex="0032"/>
  <outline>
    <contour>
      <point x="625" y="0" type="curve" smooth="yes"/>
      <point x="119" y="0" type="line" smooth="yes"/>
      <point x="103" y="0"/>
      <point x="94" y="16"/>
      <point x="94" y="58" type="curve" smooth="yes"/>
      <point x="94" y="63"/>
      <point x="94" y="114"/>
      <point x="95" y="119" type="curve" smooth="yes"/>
      <point x="117" y="634"/>
      <point x="533" y="811"/>
      <point x="533" y="1115" type="curve" smooth="yes"/>
      <point x="533" y="1246"/>
      <point x="466" y="1320"/>
      <point x="365" y="1320" type="curve" smooth="yes"/>
      <point x="246" y="1320"/>
      <point x="175" y="1281"/>
      <point x="112" y="1258" type="curve"/>
      <point x="102" y="1248"/>
      <point x="98" y="1254"/>
      <point x="97" y="1267" type="curve"/>
      <point x="86" y="1296"/>
      <point x="77" y="1336"/>
      <point x="77" y="1348" type="curve" smooth="yes"/>
      <point x="77" y="1367"/>
      <point x="80" y="1379"/>
      <point x="85" y="1385" type="curve"/>
      <point x="162" y="1427"/>
      <point x="263" y="1453"/>
      <point x="368" y="1453" type="curve" smooth="yes"/>
      <point x="525" y="1453"/>
      <point x="690" y="1384"/>
      <point x="690" y="1125" type="curve" smooth="yes"/>
      <point x="690" y="776"/>
      <point x="328" y="634"/>
      <point x="264" y="175" type="curve"/>
      <point x="261" y="167"/>
      <point x="266" y="120"/>
      <point x="273" y="120" type="curve" smooth="yes"/>
      <point x="626" y="120" type="line" smooth="yes"/>
      <point x="637" y="120"/>
      <point x="644" y="112"/>
      <point x="644" y="77" type="curve" smooth="yes"/>
      <point x="644" y="41" type="line" smooth="yes"/>
      <point x="644" y="7"/>
      <point x="638" y="0"/>
    </contour>
  </outline>
</glyph>
<glyph name="three" format="1">
  <advance width="675"/>
  <unicode hex="0033"/>
  <outline>
    <contour>
      <point x="278" y="-14" type="curve" smooth="yes"/>
      <point x="186" y="-14"/>
      <point x="116" y="3"/>
      <point x="74" y="33" type="curve" smooth="yes"/>
      <point x="65" y="40"/>
      <point x="61" y="75"/>
      <point x="61" y="82" type="curve" smooth="yes"/>
      <point x="61" y="92"/>
      <point x="65" y="147"/>
      <point x="70" y="147" type="curve"/>
      <point x="71" y="161"/>
      <point x="73" y="171"/>
      <point x="81" y="164" type="curve"/>
      <point x="110" y="147"/>
      <point x="162" y="117"/>
      <point x="261" y="117" type="curve" smooth="yes"/>
      <point x="403" y="117"/>
      <point x="466" y="205"/>
      <point x="466" y="395" type="curve"/>
      <point x="465" y="576"/>
      <point x="400" y="660"/>
      <point x="275" y="663" type="curve" smooth="yes"/>
      <point x="268" y="664"/>
      <point x="245" y="664"/>
      <point x="239" y="664" type="curve" smooth="yes"/>
      <point x="218" y="664"/>
      <point x="214" y="672"/>
      <point x="214" y="695" type="curve" smooth="yes"/>
      <point x="214" y="778" type="line" smooth="yes"/>
      <point x="214" y="790"/>
      <point x="217" y="802"/>
      <point x="239" y="802" type="curve" smooth="yes"/>
      <point x="245" y="802"/>
      <point x="267" y="802"/>
      <point x="273" y="803" type="curve" smooth="yes"/>
      <point x="401" y="807"/>
      <point x="454" y="893"/>
      <point x="454" y="1055" type="curve" smooth="yes"/>
      <point x="454" y="1254"/>
      <point x="390" y="1321"/>
      <point x="276" y="1321" type="curve" smooth="yes"/>
      <point x="176" y="1321"/>
      <point x="112" y="1292"/>
      <point x="76" y="1271" type="curve"/>
      <point x="70" y="1266"/>
      <point x="67" y="1270"/>
      <point x="66" y="1288" type="curve"/>
      <point x="62" y="1288"/>
      <point x="56" y="1341"/>
      <point x="56" y="1349" type="curve" smooth="yes"/>
      <point x="56" y="1357"/>
      <point x="61" y="1392"/>
      <point x="72" y="1399" type="curve" smooth="yes"/>
      <point x="129" y="1434"/>
      <point x="198" y="1453"/>
      <point x="294" y="1453" type="curve" smooth="yes"/>
      <point x="466" y="1453"/>
      <point x="600" y="1356"/>
      <point x="600" y="1062" type="curve" smooth="yes"/>
      <point x="600" y="877"/>
      <point x="536" y="767"/>
      <point x="403" y="732" type="curve"/>
      <point x="546" y="703"/>
      <point x="609" y="568"/>
      <point x="609" y="366" type="curve" smooth="yes"/>
      <point x="609" y="66"/>
      <point x="447" y="-14"/>
    </contour>
  </outline>
</glyph>
<glyph name="five" format="1">
  <advance width="858"/>
  <unicode hex="0035"/>
  <outline>
    <contour>
      <point x="409" y="-14" type="curve" smooth="yes"/>
      <point x="302" y="-14"/>
      <point x="183" y="18"/>
      <point x="142" y="44" type="curve" smooth="yes"/>
      <point x="129" y="52"/>
      <point x="123" y="81"/>
      <point x="123" y="95" type="curve" smooth="yes"/>
      <point x="123" y="111"/>
      <point x="126" y="179"/>
      <point x="141" y="179" type="curve" smooth="yes"/>
      <point x="144" y="179"/>
      <point x="146" y="178"/>
      <point x="150" y="176" type="curve" smooth="yes"/>
      <point x="164" y="171"/>
      <point x="317" y="119"/>
      <point x="408" y="119" type="curve" smooth="yes"/>
      <point x="604" y="119"/>
      <point x="633" y="259"/>
      <point x="633" y="473" type="curve" smooth="yes"/>
      <point x="633" y="628"/>
      <point x="613" y="811"/>
      <point x="437" y="811" type="curve" smooth="yes"/>
      <point x="280" y="811"/>
      <point x="255" y="677"/>
      <point x="200" y="677" type="curve" smooth="yes"/>
      <point x="150" y="677" type="line" smooth="yes"/>
      <point x="125" y="677"/>
      <point x="127" y="717"/>
      <point x="126" y="757" type="curve" smooth="yes"/>
      <point x="118" y="1370" type="line" smooth="yes"/>
      <point x="118" y="1383" type="line" smooth="yes"/>
      <point x="118" y="1426"/>
      <point x="134" y="1438"/>
      <point x="176" y="1438" type="curve" smooth="yes"/>
      <point x="703" y="1438" type="line" smooth="yes"/>
      <point x="716" y="1438"/>
      <point x="727" y="1425"/>
      <point x="727" y="1400" type="curve" smooth="yes"/>
      <point x="726" y="1337" type="line"/>
      <point x="724" y="1307"/>
      <point x="720" y="1294"/>
      <point x="711" y="1294" type="curve" smooth="yes"/>
      <point x="282" y="1294" type="line" smooth="yes"/>
      <point x="246" y="1294"/>
      <point x="240" y="1288"/>
      <point x="240" y="1252" type="curve" smooth="yes"/>
      <point x="240" y="1251"/>
      <point x="239" y="809"/>
      <point x="239" y="809" type="curve"/>
      <point x="265" y="848"/>
      <point x="339" y="935"/>
      <point x="486" y="935" type="curve" smooth="yes"/>
      <point x="702" y="935"/>
      <point x="779" y="750"/>
      <point x="779" y="465" type="curve" smooth="yes"/>
      <point x="779" y="81"/>
      <point x="628" y="-14"/>
    </contour>
  </outline>
</glyph>
<glyph name="six" format="1">
  <advance width="822"/>
  <unicode hex="0036"/>
  <outline>
    <contour>
      <point x="423" y="118" type="curve"/>
      <point x="430" y="118" type="line" smooth="yes"/>
      <point x="534" y="118"/>
      <point x="592" y="185"/>
      <point x="592" y="448" type="curve" smooth="yes"/>
      <point x="592" y="608"/>
      <point x="566" y="753"/>
      <point x="441" y="753" type="curve" smooth="yes"/>
      <point x="395" y="753"/>
      <point x="332" y="738"/>
      <point x="261" y="707" type="curve"/>
      <point x="261" y="615" type="line" smooth="yes"/>
      <point x="261" y="249"/>
      <point x="306" y="120"/>
    </contour>
    <contour>
      <point x="99" y="702" type="curve" smooth="yes"/>
      <point x="99" y="1257"/>
      <point x="207" y="1453"/>
      <point x="461" y="1453" type="curve" smooth="yes"/>
      <point x="547" y="1453"/>
      <point x="641" y="1419"/>
      <point x="678" y="1386" type="curve" smooth="yes"/>
      <point x="688" y="1378"/>
      <point x="692" y="1349"/>
      <point x="692" y="1344" type="curve" smooth="yes"/>
      <point x="693" y="1339"/>
      <point x="688" y="1286"/>
      <point x="685" y="1282" type="curve"/>
      <point x="681" y="1259"/>
      <point x="674" y="1249"/>
      <point x="662" y="1258" type="curve" smooth="yes"/>
      <point x="637" y="1275"/>
      <point x="577" y="1320"/>
      <point x="487" y="1320" type="curve" smooth="yes"/>
      <point x="341" y="1320"/>
      <point x="262" y="1211"/>
      <point x="262" y="871" type="curve" smooth="yes"/>
      <point x="262" y="840" type="line"/>
      <point x="331" y="867"/>
      <point x="396" y="887"/>
      <point x="450" y="887" type="curve" smooth="yes"/>
      <point x="680" y="887"/>
      <point x="748" y="686"/>
      <point x="748" y="432" type="curve" smooth="yes"/>
      <point x="748" y="66"/>
      <point x="607" y="-14"/>
      <point x="424" y="-14" type="curve" smooth="yes"/>
      <point x="184" y="-14"/>
      <point x="99" y="215"/>
    </contour>
  </outline>
</glyph>
<glyph name="seven" format="1">
  <advance width="556"/>
  <unicode hex="0037"/>
  <outline>
    <contour>
      <point x="202" y="0" type="line" smooth="yes"/>
      <point x="189" y="0"/>
      <point x="178" y="14"/>
      <point x="178" y="44" type="curve" smooth="yes"/>
      <point x="178" y="49"/>
      <point x="178" y="54"/>
      <point x="179" y="59" type="curve" smooth="yes"/>
      <point x="326" y="1259" type="line" smooth="yes"/>
      <point x="327" y="1273"/>
      <point x="322" y="1280"/>
      <point x="315" y="1280" type="curve" smooth="yes"/>
      <point x="114" y="1280" type="line" smooth="yes"/>
      <point x="99" y="1280"/>
      <point x="89" y="1287"/>
      <point x="89" y="1320" type="curve" smooth="yes"/>
      <point x="89" y="1401" type="line" smooth="yes"/>
      <point x="89" y="1432"/>
      <point x="99" y="1438"/>
      <point x="114" y="1438" type="curve" smooth="yes"/>
      <point x="474" y="1438" type="line" smooth="yes"/>
      <point x="487" y="1438"/>
      <point x="497" y="1425"/>
      <point x="497" y="1393" type="curve" smooth="yes"/>
      <point x="497" y="1380" type="line"/>
      <point x="336" y="59" type="line" smooth="yes"/>
      <point x="331" y="18"/>
      <point x="325" y="0"/>
      <point x="310" y="0" type="curve" smooth="yes"/>
    </contour>
  </outline>
</glyph>
<glyph name="nine" format="1">
  <advance width="823"/>
  <unicode hex="0039"/>
  <outline>
    <contour>
      <point x="406" y="677" type="curve" smooth="yes"/>
      <point x="449" y="677"/>
      <point x="512" y="691"/>
      <point x="565" y="735" type="curve"/>
      <point x="565" y="901" type="line" smooth="yes"/>
      <point x="565" y="1220"/>
      <point x="517" y="1326"/>
      <point x="410" y="1326" type="curve" smooth="yes"/>
      <point x="311" y="1326"/>
      <point x="257" y="1226"/>
      <point x="257" y="989" type="curve" smooth="yes"/>
      <point x="257" y="802"/>
      <point x="292" y="677"/>
    </contour>
    <contour>
      <point x="386" y="-14" type="curve" smooth="yes"/>
      <point x="316" y="-14"/>
      <point x="205" y="25"/>
      <point x="165" y="67" type="curve"/>
      <point x="156" y="75"/>
      <point x="154" y="104"/>
      <point x="154" y="114" type="curve" smooth="yes"/>
      <point x="158" y="176" type="line"/>
      <point x="162" y="218"/>
      <point x="173" y="209"/>
      <point x="182" y="202" type="curve" smooth="yes"/>
      <point x="203" y="183"/>
      <point x="286" y="130"/>
      <point x="381" y="130" type="curve" smooth="yes"/>
      <point x="512" y="130"/>
      <point x="562" y="246"/>
      <point x="562" y="525" type="curve" smooth="yes"/>
      <point x="562" y="601" type="line"/>
      <point x="517" y="568"/>
      <point x="459" y="541"/>
      <point x="397" y="541" type="curve" smooth="yes"/>
      <point x="182" y="541"/>
      <point x="99" y="729"/>
      <point x="99" y="997" type="curve" smooth="yes"/>
      <point x="99" y="1354"/>
      <point x="234" y="1453"/>
      <point x="413" y="1453" type="curve" smooth="yes"/>
      <point x="640" y="1453"/>
      <point x="726" y="1270"/>
      <point x="726" y="732" type="curve" smooth="yes"/>
      <point x="726" y="136"/>
      <point x="617" y="-14"/>
    </contour>
  </outline>
</glyph>
<glyph name="equal" format="1">
  <advance width="520"/>
  <unicode hex="003D"/>
  <outline>
    <contour>
      <point x="71" y="622" type="line" smooth="yes"/>
      <point x="56" y="622"/>
      <point x="48" y="623"/>
      <point x="48" y="666" type="curve" smooth="yes"/>
      <point x="48" y="696" type="line" smooth="yes"/>
      <point x="48" y="739"/>
      <point x="56" y="741"/>
      <point x="71" y="741" type="curve" smooth="yes"/>
      <point x="449" y="741" type="line" smooth="yes"/>
      <point x="464" y="741"/>
      <point x="472" y="739"/>
      <point x="472" y="696" type="curve" smooth="yes"/>
      <point x="472" y="666" type="line" smooth="yes"/>
      <point x="472" y="623"/>
      <point x="464" y="622"/>
      <point x="449" y="622" type="curve" smooth="yes"/>
    </contour>
    <contour>
      <point x="71" y="347" type="line" smooth="yes"/>
      <point x="56" y="347"/>
      <point x="48" y="348"/>
      <point x="48" y="391" type="curve" smooth="yes"/>
      <point x="48" y="421" type="line" smooth="yes"/>
      <point x="48" y="464"/>
      <point x="56" y="466"/>
      <point x="71" y="466" type="curve" smooth="yes"/>
      <point x="449" y="466" type="line" smooth="yes"/>
      <point x="464" y="466"/>
      <point x="472" y="464"/>
      <point x="472" y="421" type="curve" smooth="yes"/>
      <point x="472" y="391" type="line" smooth="yes"/>
      <point x="472" y="348"/>
      <point x="464" y="347"/>
      <point x="449" y="347" type="curve" smooth="yes"/>
    </contour>
  </outline>
</glyph>
<glyph name="greater" format="1">
  <advance width="895"/>
  <unicode hex="003E"/>
  <outline>
    <contour>
      <point x="156" y="132" type="curve" smooth="yes"/>
      <point x="140" y="132"/>
      <point x="129" y="149"/>
      <point x="129" y="175" type="curve" smooth="yes"/>
      <point x="129" y="218" type="line" smooth="yes"/>
      <point x="129" y="264"/>
      <point x="145" y="280"/>
      <point x="170" y="310" type="curve"/>
      <point x="399" y="624" type="line" smooth="yes"/>
      <point x="403" y="629"/>
      <point x="405" y="635"/>
      <point x="405" y="641" type="curve" smooth="yes"/>
      <point x="405" y="646"/>
      <point x="403" y="652"/>
      <point x="398" y="657" type="curve" smooth="yes"/>
      <point x="170" y="952" type="line"/>
      <point x="145" y="980"/>
      <point x="129" y="993"/>
      <point x="129" y="1038" type="curve" smooth="yes"/>
      <point x="129" y="1091" type="line" smooth="yes"/>
      <point x="129" y="1114"/>
      <point x="140" y="1131"/>
      <point x="155" y="1131" type="curve" smooth="yes"/>
      <point x="161" y="1131"/>
      <point x="169" y="1124"/>
      <point x="177" y="1117" type="curve"/>
      <point x="464" y="757" type="line" smooth="yes"/>
      <point x="494" y="720"/>
      <point x="510" y="701"/>
      <point x="510" y="657" type="curve" smooth="yes"/>
      <point x="510" y="622" type="line" smooth="yes"/>
      <point x="510" y="578"/>
      <point x="493" y="561"/>
      <point x="463" y="523" type="curve"/>
      <point x="178" y="143" type="line"/>
      <point x="170" y="135"/>
      <point x="162" y="132"/>
    </contour>
  </outline>
</glyph>
<glyph name="F" format="1">
  <advance width="661"/>
  <unicode hex="0046"/>
  <outline>
    <contour>
      <point x="136" y="0" type="line" smooth="yes"/>
      <point x="122" y="0"/>
      <point x="112" y="2"/>
      <point x="112" y="39" type="curve" smooth="yes"/>
      <point x="112" y="1399" type="line" smooth="yes"/>
      <point x="112" y="1433"/>
      <point x="122" y="1438"/>
      <point x="136" y="1438" type="curve" smooth="yes"/>
      <point x="607" y="1438" type="line" smooth="yes"/>
      <point x="621" y="1438"/>
      <point x="631" y="1436"/>
      <point x="631" y="1402" type="curve" smooth="yes"/>
      <point x="631" y="1346" type="line" smooth="yes"/>
      <point x="631" y="1311"/>
      <point x="621" y="1310"/>
      <point x="607" y="1310" type="curve" smooth="yes"/>
      <point x="284" y="1310" type="line" smooth="yes"/>
      <point x="276" y="1310"/>
      <point x="273" y="1304"/>
      <point x="273" y="1284" type="curve" smooth="yes"/>
      <point x="273" y="803" type="line" smooth="yes"/>
      <point x="273" y="794"/>
      <point x="278" y="787"/>
      <point x="281" y="787" type="curve" smooth="yes"/>
      <point x="552" y="787" type="line" smooth="yes"/>
      <point x="567" y="787"/>
      <point x="576" y="785"/>
      <point x="576" y="752" type="curve" smooth="yes"/>
      <point x="576" y="688" type="line" smooth="yes"/>
      <point x="576" y="653"/>
      <point x="567" y="652"/>
      <point x="552" y="652" type="curve" smooth="yes"/>
      <point x="282" y="652" type="line" smooth="yes"/>
      <point x="278" y="652"/>
      <point x="273" y="638"/>
      <point x="273" y="629" type="curve" smooth="yes"/>
      <point x="273" y="39" type="line" smooth="yes"/>
      <point x="273" y="2"/>
      <point x="263" y="0"/>
      <point x="249" y="0" type="curve" smooth="yes"/>
    </contour>
  </outline>
</glyph>
<glyph name="O" format="1">
  <advance width="900"/>
  <unicode hex="004F"/>
  <outline>
    <contour>
      <point x="449" y="-14" type="curve" smooth="yes"/>
      <point x="191" y="-14"/>
      <point x="88" y="118"/>
      <point x="88" y="725" type="curve" smooth="yes"/>
      <point x="88" y="1303"/>
      <point x="196" y="1453"/>
      <point x="449" y="1453" type="curve" smooth="yes"/>
      <point x="706" y="1453"/>
      <point x="812" y="1309"/>
      <point x="812" y="725" type="curve" smooth="yes"/>
      <point x="812" y="113"/>
      <point x="710" y="-14"/>
    </contour>
    <contour>
      <point x="449" y="115" type="curve" smooth="yes"/>
      <point x="600" y="115"/>
      <point x="651" y="222"/>
      <point x="651" y="725" type="curve" smooth="yes"/>
      <point x="651" y="1196"/>
      <point x="605" y="1321"/>
      <point x="450" y="1321" type="curve" smooth="yes"/>
      <point x="296" y="1321"/>
      <point x="249" y="1184"/>
      <point x="249" y="725" type="curve" smooth="yes"/>
      <point x="249" y="229"/>
      <point x="300" y="115"/>
    </contour>
  </outline>
</glyph>
<glyph name="T" format="1">
  <advance width="634"/>
  <unicode hex="0054"/>
  <outline>
    <contour>
      <point x="263" y="0" type="line" smooth="yes"/>
      <point x="248" y="0"/>
      <point x="239" y="4"/>
      <point x="239" y="47" type="curve" smooth="yes"/>
      <point x="239" y="1281" type="line" smooth="yes"/>
      <point x="239" y="1301"/>
      <point x="235" y="1306"/>
      <point x="228" y="1306" type="curve" smooth="yes"/>
      <point x="53" y="1306" type="line" smooth="yes"/>
      <point x="37" y="1306"/>
      <point x="28" y="1307"/>
      <point x="28" y="1341" type="curve" smooth="yes"/>
      <point x="28" y="1397" type="line" smooth="yes"/>
      <point x="28" y="1435"/>
      <point x="37" y="1438"/>
      <point x="53" y="1438" type="curve" smooth="yes"/>
      <point x="585" y="1438" type="line" smooth="yes"/>
      <point x="600" y="1438"/>
      <point x="609" y="1435"/>
      <point x="609" y="1397" type="curve" smooth="yes"/>
      <point x="609" y="1341" type="line" smooth="yes"/>
      <point x="609" y="1307"/>
      <point x="600" y="1306"/>
      <point x="585" y="1306" type="curve" smooth="yes"/>
      <point x="411" y="1306" type="line" smooth="yes"/>
      <point x="404" y="1306"/>
      <point x="400" y="1301"/>
      <point x="400" y="1281" type="curve" smooth="yes"/>
      <point x="400" y="47" type="line" smooth="yes"/>
      <point x="400" y="4"/>
      <point x="391" y="0"/>
      <point x="376" y="0" type="curve" smooth="yes"/>
    </contour>
  </outline>
</glyph>
<glyph name="U" format="1">
  <advance width="937"/>
  <unicode hex="0055"/>
  <outline>
    <contour>
      <point x="474" y="-14" type="curve" smooth="yes"/>
      <point x="250" y="-14"/>
      <point x="100" y="41"/>
      <point x="100" y="590" type="curve" smooth="yes"/>
      <point x="100" y="1391" type="line" smooth="yes"/>
      <point x="100" y="1434"/>
      <point x="110" y="1438"/>
      <point x="125" y="1438" type="curve" smooth="yes"/>
      <point x="236" y="1438" type="line" smooth="yes"/>
      <point x="250" y="1438"/>
      <point x="261" y="1434"/>
      <point x="261" y="1391" type="curve" smooth="yes"/>
      <point x="261" y="595" type="line" smooth="yes"/>
      <point x="261" y="166"/>
      <point x="330" y="116"/>
      <point x="473" y="116" type="curve" smooth="yes"/>
      <point x="617" y="116"/>
      <point x="676" y="156"/>
      <point x="676" y="595" type="curve" smooth="yes"/>
      <point x="676" y="1391" type="line" smooth="yes"/>
      <point x="676" y="1434"/>
      <point x="686" y="1438"/>
      <point x="701" y="1438" type="curve" smooth="yes"/>
      <point x="813" y="1438" type="line" smooth="yes"/>
      <point x="828" y="1438"/>
      <point x="837" y="1434"/>
      <point x="837" y="1391" type="curve" smooth="yes"/>
      <point x="837" y="590" type="line" smooth="yes"/>
      <point x="837" y="37"/>
      <point x="691" y="-14"/>
    </contour>
  </outline>
</glyph>
<glyph name="X" format="1">
  <advance width="796"/>
  <unicode hex="0058"/>
  <outline>
    <contour>
      <point x="64" y="0" type="line" smooth="yes"/>
      <point x="58" y="0"/>
      <point x="54" y="11"/>
      <point x="54" y="25" type="curve" smooth="yes"/>
      <point x="54" y="34"/>
      <point x="55" y="46"/>
      <point x="61" y="60" type="curve" smooth="yes"/>
      <point x="316" y="713" type="line"/>
      <point x="77" y="1376" type="line"/>
      <point x="73" y="1391"/>
      <point x="69" y="1404"/>
      <point x="69" y="1414" type="curve" smooth="yes"/>
      <point x="69" y="1428"/>
      <point x="74" y="1438"/>
      <point x="80" y="1438" type="curve" smooth="yes"/>
      <point x="202" y="1438" type="line" smooth="yes"/>
      <point x="219" y="1438"/>
      <point x="235" y="1425"/>
      <point x="248" y="1387" type="curve" smooth="yes"/>
      <point x="417" y="893" type="line"/>
      <point x="597" y="1389" type="line"/>
      <point x="612" y="1426"/>
      <point x="629" y="1438"/>
      <point x="645" y="1438" type="curve" smooth="yes"/>
      <point x="726" y="1438" type="line" smooth="yes"/>
      <point x="735" y="1438"/>
      <point x="740" y="1427"/>
      <point x="740" y="1412" type="curve" smooth="yes"/>
      <point x="740" y="1405"/>
      <point x="739" y="1395"/>
      <point x="735" y="1385" type="curve" smooth="yes"/>
      <point x="497" y="778" type="line"/>
      <point x="746" y="62" type="line" smooth="yes"/>
      <point x="750" y="49"/>
      <point x="752" y="37"/>
      <point x="752" y="28" type="curve" smooth="yes"/>
      <point x="752" y="12"/>
      <point x="747" y="0"/>
      <point x="738" y="0" type="curve" smooth="yes"/>
      <point x="632" y="0" type="line" smooth="yes"/>
      <point x="615" y="0"/>
      <point x="600" y="12"/>
      <point x="587" y="51" type="curve" smooth="yes"/>
      <point x="410" y="581" type="line"/>
      <point x="198" y="49" type="line" smooth="yes"/>
      <point x="183" y="12"/>
      <point x="169" y="0"/>
      <point x="153" y="0" type="curve" smooth="yes"/>
    </contour>
  </outline>
</glyph>
<glyph name="Y" format="1">
  <advance width="693"/>
  <unicode hex="0059"/>
  <outline>
    <contour>
      <point x="293" y="0" type="line" smooth="yes"/>
      <point x="278" y="0"/>
      <point x="269" y="9"/>
      <point x="269" y="52" type="curve" smooth="yes"/>
      <point x="269" y="505" type="line"/>
      <point x="42" y="1379" type="line" smooth="yes"/>
      <point x="38" y="1393"/>
      <point x="37" y="1401"/>
      <point x="37" y="1411" type="curve" smooth="yes"/>
      <point x="37" y="1426"/>
      <point x="43" y="1438"/>
      <point x="55" y="1438" type="curve" smooth="yes"/>
      <point x="158" y="1438" type="line" smooth="yes"/>
      <point x="174" y="1438"/>
      <point x="192" y="1423"/>
      <point x="200" y="1390" type="curve" smooth="yes"/>
      <point x="358" y="729" type="line"/>
      <point x="514" y="1389" type="line" smooth="yes"/>
      <point x="521" y="1420"/>
      <point x="538" y="1438"/>
      <point x="553" y="1438" type="curve" smooth="yes"/>
      <point x="640" y="1438" type="line" smooth="yes"/>
      <point x="652" y="1438"/>
      <point x="658" y="1426"/>
      <point x="658" y="1409" type="curve" smooth="yes"/>
      <point x="658" y="1400"/>
      <point x="657" y="1392"/>
      <point x="653" y="1379" type="curve" smooth="yes"/>
      <point x="429" y="509" type="line"/>
      <point x="429" y="52" type="line" smooth="yes"/>
      <point x="429" y="9"/>
      <point x="420" y="0"/>
      <point x="405" y="0" type="curve" smooth="yes"/>
    </contour>
  </outline>
</glyph>
<glyph name="bracketright" format="1">
  <advance width="537"/>
  <unicode hex="005D"/>
  <outline>
    <contour>
      <point x="413" y="1481" type="line" smooth="yes"/>
      <point x="428" y="1481"/>
      <point x="440" y="1461"/>
      <point x="440" y="1418" type="curve" smooth="yes"/>
      <point x="440" y="-41" type="line" smooth="yes"/>
      <point x="440" y="-84"/>
      <point x="429" y="-104"/>
      <point x="413" y="-104" type="curve" smooth="yes"/>
      <point x="137" y="-104" type="line" smooth="yes"/>
      <point x="122" y="-104"/>
      <point x="112" y="-95"/>
      <point x="112" y="-52" type="curve" smooth="yes"/>
      <point x="112" y="26" type="line" smooth="yes"/>
      <point x="112" y="69"/>
      <point x="122" y="78"/>
      <point x="137" y="78" type="curve" smooth="yes"/>
      <point x="268" y="78" type="line" smooth="yes"/>
      <point x="275" y="78"/>
      <point x="279" y="90"/>
      <point x="279" y="110" type="curve" smooth="yes"/>
      <point x="279" y="1274" type="line" smooth="yes"/>
      <point x="279" y="1294"/>
      <point x="275" y="1305"/>
      <point x="268" y="1305" type="curve" smooth="yes"/>
      <point x="137" y="1305" type="line" smooth="yes"/>
      <point x="122" y="1305"/>
      <point x="112" y="1320"/>
      <point x="112" y="1363" type="curve" smooth="yes"/>
      <point x="112" y="1429" type="line" smooth="yes"/>
      <point x="112" y="1472"/>
      <point x="122" y="1481"/>
      <point x="137" y="1481" type="curve" smooth="yes"/>
    </contour>
  </outline>
</glyph>
<glyph name="g" format="1">
  <advance width="681"/>
  <unicode hex="0067"/>
  <outline>
    <contour>
      <point x="356" y="442" type="curve" smooth="yes"/>
      <point x="457" y="442"/>
      <point x="486" y="538"/>
      <point x="486" y="671" type="curve" smooth="yes"/>
      <point x="486" y="807"/>
      <point x="440" y="923"/>
      <point x="342" y="923" type="curve" smooth="yes"/>
      <point x="245" y="923"/>
      <point x="210" y="811"/>
      <point x="210" y="682" type="curve" smooth="yes"/>
      <point x="210" y="531"/>
      <point x="259" y="442"/>
    </contour>
    <contour>
      <point x="342" y="-209" type="curve" smooth="yes"/>
      <point x="483" y="-209"/>
      <point x="544" y="-148"/>
      <point x="544" y="-35" type="curve" smooth="yes"/>
      <point x="544" y="63"/>
      <point x="480" y="92"/>
      <point x="405" y="92" type="curve" smooth="yes"/>
      <point x="290" y="92" type="line" smooth="yes"/>
      <point x="268" y="92"/>
      <point x="215" y="-11"/>
      <point x="215" y="-100" type="curve" smooth="yes"/>
      <point x="215" y="-158"/>
      <point x="238" y="-209"/>
    </contour>
    <contour>
      <point x="336" y="-300" type="curve" smooth="yes"/>
      <point x="170" y="-300"/>
      <point x="86" y="-235"/>
      <point x="86" y="-132" type="curve" smooth="yes"/>
      <point x="86" y="-68"/>
      <point x="118" y="12"/>
      <point x="168" y="90" type="curve" smooth="yes"/>
      <point x="170" y="94"/>
      <point x="172" y="99"/>
      <point x="172" y="104" type="curve" smooth="yes"/>
      <point x="172" y="110"/>
      <point x="170" y="114"/>
      <point x="165" y="117" type="curve" smooth="yes"/>
      <point x="110" y="140"/>
      <point x="75" y="161"/>
      <point x="75" y="225" type="curve" smooth="yes"/>
      <point x="75" y="324"/>
      <point x="110" y="361"/>
      <point x="145" y="406" type="curve" smooth="yes"/>
      <point x="150" y="413"/>
      <point x="152" y="419"/>
      <point x="152" y="424" type="curve" smooth="yes"/>
      <point x="152" y="430"/>
      <point x="150" y="436"/>
      <point x="146" y="440" type="curve" smooth="yes"/>
      <point x="106" y="490"/>
      <point x="68" y="574"/>
      <point x="68" y="675" type="curve" smooth="yes"/>
      <point x="68" y="868"/>
      <point x="146" y="1018"/>
      <point x="339" y="1018" type="curve" smooth="yes"/>
      <point x="367" y="1018"/>
      <point x="389" y="1012"/>
      <point x="406" y="1008" type="curve" smooth="yes"/>
      <point x="417" y="1005"/>
      <point x="422" y="1007"/>
      <point x="423" y="1023" type="curve" smooth="yes"/>
      <point x="440" y="1276" type="line" smooth="yes"/>
      <point x="442" y="1317"/>
      <point x="454" y="1319"/>
      <point x="470" y="1319" type="curve" smooth="yes"/>
      <point x="537" y="1319" type="line" smooth="yes"/>
      <point x="547" y="1319"/>
      <point x="553" y="1295"/>
      <point x="549" y="1278" type="curve" smooth="yes"/>
      <point x="482" y="997" type="line" smooth="yes"/>
      <point x="477" y="975"/>
      <point x="484" y="968"/>
      <point x="496" y="960" type="curve" smooth="yes"/>
      <point x="554" y="917"/>
      <point x="617" y="824"/>
      <point x="617" y="676" type="curve" smooth="yes"/>
      <point x="617" y="474"/>
      <point x="544" y="347"/>
      <point x="360" y="347" type="curve" smooth="yes"/>
      <point x="316" y="347"/>
      <point x="267" y="361"/>
      <point x="237" y="379" type="curve"/>
      <point x="216" y="362"/>
      <point x="189" y="321"/>
      <point x="189" y="265" type="curve" smooth="yes"/>
      <point x="189" y="215"/>
      <point x="223" y="181"/>
      <point x="291" y="181" type="curve" smooth="yes"/>
      <point x="403" y="181" type="line" smooth="yes"/>
      <point x="591" y="181"/>
      <point x="661" y="109"/>
      <point x="661" y="-26" type="curve" smooth="yes"/>
      <point x="661" y="-240"/>
      <point x="495" y="-300"/>
    </contour>
  </outline>
</glyph>
<glyph name="h" format="1">
  <advance width="728"/>
  <unicode hex="0068"/>
  <outline>
    <contour>
      <point x="125" y="0" type="line" smooth="yes"/>
      <point x="111" y="0"/>
      <point x="101" y="7"/>
      <point x="101" y="50" type="curve" smooth="yes"/>
      <point x="101" y="1384" type="line" smooth="yes"/>
      <point x="101" y="1427"/>
      <point x="111" y="1438"/>
      <point x="125" y="1438" type="curve" smooth="yes"/>
      <point x="212" y="1438" type="line" smooth="yes"/>
      <point x="227" y="1438"/>
      <point x="237" y="1427"/>
      <point x="237" y="1384" type="curve" smooth="yes"/>
      <point x="237" y="861" type="line" smooth="yes"/>
      <point x="237" y="852"/>
      <point x="239" y="849"/>
      <point x="241" y="849" type="curve" smooth="yes"/>
      <point x="243" y="849"/>
      <point x="245" y="851"/>
      <point x="247" y="854" type="curve" smooth="yes"/>
      <point x="292" y="977"/>
      <point x="375" y="1018"/>
      <point x="439" y="1018" type="curve" smooth="yes"/>
      <point x="563" y="1018"/>
      <point x="639" y="925"/>
      <point x="639" y="582" type="curve" smooth="yes"/>
      <point x="639" y="50" type="line" smooth="yes"/>
      <point x="639" y="7"/>
      <point x="628" y="0"/>
      <point x="614" y="0" type="curve" smooth="yes"/>
      <point x="527" y="0" type="line" smooth="yes"/>
      <point x="512" y="0"/>
      <point x="503" y="7"/>
      <point x="503" y="50" type="curve" smooth="yes"/>
      <point x="503" y="606" type="line" smooth="yes"/>
      <point x="503" y="816"/>
      <point x="467" y="905"/>
      <point x="394" y="905" type="curve" smooth="yes"/>
      <point x="309" y="905"/>
      <point x="237" y="766"/>
      <point x="237" y="595" type="curve" smooth="yes"/>
      <point x="237" y="50" type="line" smooth="yes"/>
      <point x="237" y="7"/>
      <point x="227" y="0"/>
      <point x="213" y="0" type="curve" smooth="yes"/>
    </contour>
  </outline>
</glyph>
<glyph name="i" format="1">
  <advance width="349"/>
  <unicode hex="0069"/>
  <outline>
    <contour>
      <point x="127" y="1167" type="line" smooth="yes"/>
      <point x="112" y="1167"/>
      <point x="103" y="1175"/>
      <point x="103" y="1218" type="curve" smooth="yes"/>
      <point x="103" y="1322" type="line" smooth="yes"/>
      <point x="103" y="1365"/>
      <point x="112" y="1374"/>
      <point x="127" y="1374" type="curve" smooth="yes"/>
      <point x="226" y="1374" type="line" smooth="yes"/>
      <point x="240" y="1374"/>
      <point x="249" y="1365"/>
      <point x="249" y="1322" type="curve" smooth="yes"/>
      <point x="249" y="1218" type="line" smooth="yes"/>
      <point x="249" y="1175"/>
      <point x="240" y="1167"/>
      <point x="226" y="1167" type="curve" smooth="yes"/>
    </contour>
    <contour>
      <point x="133" y="0" type="line" smooth="yes"/>
      <point x="118" y="0"/>
      <point x="108" y="18"/>
      <point x="108" y="61" type="curve" smooth="yes"/>
      <point x="108" y="946" type="line" smooth="yes"/>
      <point x="108" y="989"/>
      <point x="118" y="1006"/>
      <point x="133" y="1006" type="curve" smooth="yes"/>
      <point x="220" y="1006" type="line" smooth="yes"/>
      <point x="235" y="1006"/>
      <point x="244" y="989"/>
      <point x="244" y="946" type="curve" smooth="yes"/>
      <point x="244" y="61" type="line" smooth="yes"/>
      <point x="244" y="18"/>
      <point x="235" y="0"/>
      <point x="220" y="0" type="curve" smooth="yes"/>
    </contour>
  </outline>
</glyph>
<glyph name="k" format="1">
  <advance width="683"/>
  <unicode hex="006B"/>
  <outline>
    <contour>
      <point x="128" y="0" type="line" smooth="yes"/>
      <point x="114" y="0"/>
      <point x="104" y="20"/>
      <point x="104" y="63" type="curve" smooth="yes"/>
      <point x="104" y="1375" type="line" smooth="yes"/>
      <point x="104" y="1418"/>
      <point x="114" y="1438"/>
      <point x="128" y="1438" type="curve" smooth="yes"/>
      <point x="216" y="1438" type="line" smooth="yes"/>
      <point x="230" y="1438"/>
      <point x="240" y="1418"/>
      <point x="240" y="1375" type="curve" smooth="yes"/>
      <point x="240" y="522" type="line" smooth="yes"/>
      <point x="240" y="514"/>
      <point x="242" y="508"/>
      <point x="245" y="508" type="curve"/>
      <point x="245" y="508"/>
      <point x="247" y="509"/>
      <point x="248" y="511" type="curve" smooth="yes"/>
      <point x="316" y="667"/>
      <point x="405" y="803"/>
      <point x="484" y="948" type="curve" smooth="yes"/>
      <point x="502" y="981"/>
      <point x="519" y="1006"/>
      <point x="534" y="1006" type="curve" smooth="yes"/>
      <point x="628" y="1006" type="line" smooth="yes"/>
      <point x="634" y="1006"/>
      <point x="638" y="997"/>
      <point x="638" y="985" type="curve" smooth="yes"/>
      <point x="638" y="975"/>
      <point x="634" y="962"/>
      <point x="627" y="949" type="curve" smooth="yes"/>
      <point x="429" y="584" type="line" smooth="yes"/>
      <point x="427" y="579"/>
      <point x="425" y="574"/>
      <point x="425" y="568" type="curve" smooth="yes"/>
      <point x="425" y="562"/>
      <point x="428" y="556"/>
      <point x="429" y="553" type="curve" smooth="yes"/>
      <point x="643" y="61" type="line" smooth="yes"/>
      <point x="648" y="49"/>
      <point x="651" y="37"/>
      <point x="651" y="27" type="curve" smooth="yes"/>
      <point x="651" y="12"/>
      <point x="646" y="0"/>
      <point x="640" y="0" type="curve" smooth="yes"/>
      <point x="540" y="0" type="line" smooth="yes"/>
      <point x="527" y="0"/>
      <point x="516" y="18"/>
      <point x="501" y="54" type="curve" smooth="yes"/>
      <point x="320" y="485" type="line" smooth="yes"/>
      <point x="318" y="490"/>
      <point x="316" y="495"/>
      <point x="312" y="495" type="curve" smooth="yes"/>
      <point x="311" y="495"/>
      <point x="308" y="493"/>
      <point x="306" y="488" type="curve"/>
      <point x="291" y="467"/>
      <point x="247" y="355"/>
      <point x="246" y="354" type="curve" smooth="yes"/>
      <point x="242" y="344"/>
      <point x="240" y="330"/>
      <point x="240" y="314" type="curve" smooth="yes"/>
      <point x="240" y="63" type="line" smooth="yes"/>
      <point x="240" y="20"/>
      <point x="230" y="0"/>
      <point x="216" y="0" type="curve" smooth="yes"/>
    </contour>
  </outline>
</glyph>
<glyph name="r" format="1">
  <advance width="466"/>
  <unicode hex="0072"/>
  <outline>
    <contour>
      <point x="126" y="0" type="line" smooth="yes"/>
      <point x="111" y="0"/>
      <point x="101" y="21"/>
      <point x="101" y="64" type="curve" smooth="yes"/>
      <point x="101" y="929" type="line" smooth="yes"/>
      <point x="101" y="972"/>
      <point x="106" y="1006"/>
      <point x="121" y="1006" type="curve" smooth="yes"/>
      <point x="149" y="1006" type="line" smooth="yes"/>
      <point x="165" y="1006"/>
      <point x="171" y="987"/>
      <point x="178" y="942" type="curve"/>
      <point x="196" y="804" type="line" smooth="yes"/>
      <point x="198" y="795"/>
      <point x="200" y="787"/>
      <point x="203" y="787" type="curve" smooth="yes"/>
      <point x="206" y="787"/>
      <point x="208" y="797"/>
      <point x="209" y="804" type="curve" smooth="yes"/>
      <point x="246" y="938"/>
      <point x="305" y="1013"/>
      <point x="364" y="1014" type="curve"/>
      <point x="380" y="1014" type="line" smooth="yes"/>
      <point x="409" y="1014"/>
      <point x="417" y="1000"/>
      <point x="417" y="966" type="curve" smooth="yes"/>
      <point x="417" y="894" type="line" smooth="yes"/>
      <point x="417" y="861"/>
      <point x="412" y="855"/>
      <point x="397" y="855" type="curve"/>
      <point x="397" y="855"/>
      <point x="360" y="853"/>
      <point x="354" y="851" type="curve" smooth="yes"/>
      <point x="278" y="835"/>
      <point x="237" y="655"/>
      <point x="237" y="536" type="curve" smooth="yes"/>
      <point x="237" y="64" type="line" smooth="yes"/>
      <point x="237" y="21"/>
      <point x="227" y="0"/>
      <point x="213" y="0" type="curve" smooth="yes"/>
    </contour>
  </outline>
</glyph>
<glyph name="u" format="1">
  <advance width="756"/>
  <unicode hex="0075"/>
  <outline>
    <contour>
      <point x="343" y="-11" type="curve" smooth="yes"/>
      <point x="220" y="-11"/>
      <point x="123" y="51"/>
      <point x="123" y="373" type="curve" smooth="yes"/>
      <point x="123" y="956" type="line" smooth="yes"/>
      <point x="123" y="999"/>
      <point x="133" y="1006"/>
      <point x="147" y="1006" type="curve" smooth="yes"/>
      <point x="234" y="1006" type="line" smooth="yes"/>
      <point x="249" y="1006"/>
      <point x="259" y="999"/>
      <point x="259" y="956" type="curve" smooth="yes"/>
      <point x="259" y="337" type="line" smooth="yes"/>
      <point x="259" y="154"/>
      <point x="301" y="102"/>
      <point x="368" y="102" type="curve" smooth="yes"/>
      <point x="458" y="102"/>
      <point x="518" y="248"/>
      <point x="518" y="381" type="curve" smooth="yes"/>
      <point x="518" y="956" type="line" smooth="yes"/>
      <point x="518" y="999"/>
      <point x="528" y="1006"/>
      <point x="543" y="1006" type="curve" smooth="yes"/>
      <point x="629" y="1006" type="line" smooth="yes"/>
      <point x="644" y="1006"/>
      <point x="654" y="999"/>
      <point x="654" y="956" type="curve" smooth="yes"/>
      <point x="654" y="63" type="line" smooth="yes"/>
      <point x="654" y="20"/>
      <point x="646" y="0"/>
      <point x="631" y="0" type="curve" smooth="yes"/>
      <point x="611" y="0" type="line" smooth="yes"/>
      <point x="595" y="0"/>
      <point x="584" y="4"/>
      <point x="577" y="50" type="curve"/>
      <point x="559" y="191" type="line" smooth="yes"/>
      <point x="558" y="199"/>
      <point x="555" y="204"/>
      <point x="552" y="204" type="curve" smooth="yes"/>
      <point x="550" y="204"/>
      <point x="548" y="197"/>
      <point x="546" y="190" type="curve" smooth="yes"/>
      <point x="509" y="36"/>
      <point x="421" y="-11"/>
    </contour>
  </outline>
</glyph>
<glyph name="braceleft" format="1">
  <advance width="518"/>
  <unicode hex="007B"/>
  <outline>
    <contour>
      <point x="411" y="1543" type="line" smooth="yes"/>
      <point x="426" y="1543"/>
      <point x="438" y="1524"/>
      <point x="438" y="1492" type="curve" smooth="yes"/>
      <point x="438" y="1468" type="line" smooth="yes"/>
      <point x="438" y="1432"/>
      <point x="428" y="1416"/>
      <point x="394" y="1416" type="curve" smooth="yes"/>
      <point x="345" y="1416"/>
      <point x="342" y="1391"/>
      <point x="341" y="1158" type="curve"/>
      <point x="341" y="976" type="line" smooth="yes"/>
      <point x="341" y="839"/>
      <point x="332" y="753"/>
      <point x="273" y="734" type="curve" smooth="yes"/>
      <point x="269" y="733"/>
      <point x="268" y="722"/>
      <point x="273" y="720" type="curve" smooth="yes"/>
      <point x="331" y="701"/>
      <point x="339" y="622"/>
      <point x="339" y="491" type="curve" smooth="yes"/>
      <point x="339" y="310" type="line"/>
      <point x="340" y="70"/>
      <point x="342" y="36"/>
      <point x="394" y="36" type="curve" smooth="yes"/>
      <point x="428" y="36"/>
      <point x="438" y="20"/>
      <point x="438" y="-16" type="curve" smooth="yes"/>
      <point x="438" y="-40" type="line" smooth="yes"/>
      <point x="438" y="-72"/>
      <point x="426" y="-91"/>
      <point x="411" y="-91" type="curve" smooth="yes"/>
      <point x="341" y="-91" type="line" smooth="yes"/>
      <point x="243" y="-91"/>
      <point x="206" y="-22"/>
      <point x="204" y="291" type="curve"/>
      <point x="204" y="453" type="line"/>
      <point x="202" y="603"/>
      <point x="189" y="641"/>
      <point x="143" y="642" type="curve" smooth="yes"/>
      <point x="107" y="642"/>
      <point x="95" y="654"/>
      <point x="95" y="708" type="curve" smooth="yes"/>
      <point x="95" y="748" type="line" smooth="yes"/>
      <point x="95" y="798"/>
      <point x="108" y="806"/>
      <point x="143" y="807" type="curve" smooth="yes"/>
      <point x="190" y="808"/>
      <point x="202" y="859"/>
      <point x="204" y="1004" type="curve"/>
      <point x="204" y="1173" type="line"/>
      <point x="207" y="1487"/>
      <point x="245" y="1543"/>
      <point x="341" y="1543" type="curve" smooth="yes"/>
    </contour>
  </outline>
</glyph>
<glyph name="sterling" format="1">
  <advance width="926"/>
  <unicode hex="00A3"/>
  <outline>
    <contour>
      <point x="603" y="1462" type="curve" smooth="yes"/>
      <point x="727" y="1462"/>
      <point x="805" y="1424"/>
      <point x="835" y="1407" type="curve" smooth="yes"/>
      <point x="859" y="1394"/>
      <point x="878" y="1383"/>
      <point x="878" y="1360" type="curve" smooth="yes"/>
      <point x="878" y="1357"/>
      <point x="878" y="1353"/>
      <point x="877" y="1349" type="curve" smooth="yes"/>
      <point x="866" y="1299" type="line"/>
      <point x="858" y="1272"/>
      <point x="846" y="1269"/>
      <point x="819" y="1278" type="curve"/>
      <point x="773" y="1290"/>
      <point x="730" y="1329"/>
      <point x="615" y="1329" type="curve" smooth="yes"/>
      <point x="409" y="1329"/>
      <point x="378" y="1238"/>
      <point x="378" y="914" type="curve" smooth="yes"/>
      <point x="378" y="787" type="line"/>
      <point x="681" y="787" type="line" smooth="yes"/>
      <point x="706" y="787"/>
      <point x="721" y="776"/>
      <point x="721" y="743" type="curve" smooth="yes"/>
      <point x="721" y="715" type="line" smooth="yes"/>
      <point x="721" y="683"/>
      <point x="706" y="672"/>
      <point x="681" y="672" type="curve" smooth="yes"/>
      <point x="376" y="672" type="line"/>
      <point x="376" y="165" type="line" smooth="yes"/>
      <point x="376" y="127"/>
      <point x="378" y="121"/>
      <point x="408" y="121" type="curve" smooth="yes"/>
      <point x="836" y="121" type="line" smooth="yes"/>
      <point x="862" y="121"/>
      <point x="873" y="114"/>
      <point x="873" y="83" type="curve" smooth="yes"/>
      <point x="873" y="33" type="line" smooth="yes"/>
      <point x="873" y="5"/>
      <point x="862" y="0"/>
      <point x="836" y="0" type="curve" smooth="yes"/>
      <point x="90" y="0" type="line" smooth="yes"/>
      <point x="52" y="0"/>
      <point x="43" y="11"/>
      <point x="43" y="43" type="curve" smooth="yes"/>
      <point x="43" y="77" type="line" smooth="yes"/>
      <point x="43" y="109"/>
      <point x="52" y="121"/>
      <point x="90" y="121" type="curve" smooth="yes"/>
      <point x="188" y="121" type="line" smooth="yes"/>
      <point x="214" y="121"/>
      <point x="217" y="125"/>
      <point x="217" y="144" type="curve" smooth="yes"/>
      <point x="217" y="629" type="line" smooth="yes"/>
      <point x="217" y="656"/>
      <point x="210" y="672"/>
      <point x="188" y="672" type="curve" smooth="yes"/>
      <point x="85" y="672" type="line" smooth="yes"/>
      <point x="60" y="672"/>
      <point x="43" y="683"/>
      <point x="43" y="715" type="curve" smooth="yes"/>
      <point x="43" y="743" type="line" smooth="yes"/>
      <point x="43" y="776"/>
      <point x="60" y="787"/>
      <point x="85" y="787" type="curve" smooth="yes"/>
      <point x="214" y="787" type="line"/>
      <point x="214" y="809"/>
      <point x="213" y="913"/>
      <point x="213" y="937" type="curve" smooth="yes"/>
      <point x="214" y="1231"/>
      <point x="247" y="1462"/>
    </contour>
  </outline>
</glyph>
<glyph name="brokenbar" format="1">
  <advance width="406"/>
  <unicode hex="00A6"/>
  <outline>
    <contour>
      <point x="181" y="843" type="line" smooth="yes"/>
      <point x="166" y="843"/>
      <point x="157" y="856"/>
      <point x="157" y="899" type="curve" smooth="yes"/>
      <point x="157" y="1479" type="line" smooth="yes"/>
      <point x="157" y="1522"/>
      <point x="166" y="1535"/>
      <point x="181" y="1535" type="curve" smooth="yes"/>
      <point x="224" y="1535" type="line" smooth="yes"/>
      <point x="239" y="1535"/>
      <point x="249" y="1522"/>
      <point x="249" y="1479" type="curve" smooth="yes"/>
      <point x="249" y="899" type="line" smooth="yes"/>
      <point x="249" y="856"/>
      <point x="239" y="843"/>
      <point x="224" y="843" type="curve" smooth="yes"/>
    </contour>
    <contour>
      <point x="181" y="-108" type="line" smooth="yes"/>
      <point x="167" y="-108"/>
      <point x="157" y="-95"/>
      <point x="157" y="-52" type="curve" smooth="yes"/>
      <point x="157" y="525" type="line" smooth="yes"/>
      <point x="157" y="568"/>
      <point x="167" y="581"/>
      <point x="181" y="581" type="curve" smooth="yes"/>
      <point x="224" y="581" type="line" smooth="yes"/>
      <point x="239" y="581"/>
      <point x="249" y="568"/>
      <point x="249" y="525" type="curve" smooth="yes"/>
      <point x="249" y="-52" type="line" smooth="yes"/>
      <point x="249" y="-95"/>
      <point x="239" y="-108"/>
      <point x="224" y="-108" type="curve" smooth="yes"/>
    </contour>
  </outline>
</glyph>
<glyph name="section" format="1">
  <advance width="789"/>
  <unicode hex="00A7"/>
  <outline>
    <contour>
      <point x="527" y="557" type="curve"/>
      <point x="558" y="574"/>
      <point x="588" y="643"/>
      <point x="588" y="698" type="curve" smooth="yes"/>
      <point x="588" y="803"/>
      <point x="517" y="844"/>
      <point x="397" y="881" type="curve"/>
      <point x="360" y="889"/>
      <point x="330" y="896"/>
      <point x="300" y="908" type="curve"/>
      <point x="257" y="881"/>
      <point x="235" y="828"/>
      <point x="235" y="768" type="curve" smooth="yes"/>
      <point x="235" y="678"/>
      <point x="305" y="637"/>
      <point x="417" y="595" type="curve"/>
      <point x="462" y="581"/>
      <point x="502" y="566"/>
    </contour>
    <contour>
      <point x="399" y="-14" type="curve" smooth="yes"/>
      <point x="294" y="-14"/>
      <point x="203" y="15"/>
      <point x="120" y="89" type="curve" smooth="yes"/>
      <point x="114" y="94"/>
      <point x="109" y="113"/>
      <point x="109" y="123" type="curve" smooth="yes"/>
      <point x="109" y="126"/>
      <point x="125" y="169"/>
      <point x="125" y="169" type="curve"/>
      <point x="130" y="187"/>
      <point x="151" y="199"/>
      <point x="161" y="192" type="curve"/>
      <point x="238" y="128"/>
      <point x="305" y="94"/>
      <point x="410" y="94" type="curve" smooth="yes"/>
      <point x="522" y="94"/>
      <point x="573" y="174"/>
      <point x="573" y="271" type="curve" smooth="yes"/>
      <point x="573" y="376"/>
      <point x="508" y="422"/>
      <point x="397" y="460" type="curve"/>
      <point x="252" y="507"/>
      <point x="128" y="553"/>
      <point x="128" y="752" type="curve" smooth="yes"/>
      <point x="128" y="846"/>
      <point x="164" y="914"/>
      <point x="219" y="956" type="curve"/>
      <point x="165" y="1004"/>
      <point x="128" y="1070"/>
      <point x="128" y="1174" type="curve" smooth="yes"/>
      <point x="128" y="1386"/>
      <point x="272" y="1451"/>
      <point x="400" y="1451" type="curve" smooth="yes"/>
      <point x="496" y="1451"/>
      <point x="563" y="1429"/>
      <point x="634" y="1372" type="curve" smooth="yes"/>
      <point x="640" y="1368"/>
      <point x="647" y="1350"/>
      <point x="647" y="1341" type="curve" smooth="yes"/>
      <point x="647" y="1338"/>
      <point x="628" y="1291"/>
      <point x="628" y="1291" type="curve"/>
      <point x="623" y="1275"/>
      <point x="603" y="1269"/>
      <point x="593" y="1275" type="curve"/>
      <point x="541" y="1315"/>
      <point x="504" y="1341"/>
      <point x="413" y="1341" type="curve" smooth="yes"/>
      <point x="287" y="1341"/>
      <point x="249" y="1274"/>
      <point x="249" y="1188" type="curve" smooth="yes"/>
      <point x="249" y="1093"/>
      <point x="301" y="1057"/>
      <point x="417" y="1017" type="curve"/>
      <point x="571" y="967"/>
      <point x="691" y="921"/>
      <point x="691" y="703" type="curve" smooth="yes"/>
      <point x="691" y="615"/>
      <point x="655" y="546"/>
      <point x="606" y="500" type="curve"/>
      <point x="654" y="451"/>
      <point x="691" y="384"/>
      <point x="691" y="280" type="curve" smooth="yes"/>
      <point x="691" y="97"/>
      <point x="603" y="-14"/>
    </contour>
  </outline>
</glyph>
<glyph name="dieresis" format="1">
  <advance width="298"/>
  <unicode hex="00A8"/>
  <outline>
    <contour>
      <point x="290" y="0" type="line" smooth="yes"/>
      <point x="276" y="0"/>
      <point x="264" y="20"/>
      <point x="264" y="57" type="curve" smooth="yes"/>
      <point x="264" y="114" type="line" smooth="yes"/>
      <point x="264" y="151"/>
      <point x="276" y="171"/>
      <point x="290" y="171" type="curve" smooth="yes"/>
      <point x="345" y="171" type="line" smooth="yes"/>
      <point x="360" y="171"/>
      <point x="372" y="151"/>
      <point x="372" y="114" type="curve" smooth="yes"/>
      <point x="372" y="57" type="line" smooth="yes"/>
      <point x="372" y="20"/>
      <point x="360" y="0"/>
      <point x="345" y="0" type="curve" smooth="yes"/>
    </contour>
    <contour>
      <point x="67" y="0" type="line" smooth="yes"/>
      <point x="52" y="0"/>
      <point x="40" y="20"/>
      <point x="40" y="57" type="curve" smooth="yes"/>
      <point x="40" y="114" type="line" smooth="yes"/>
      <point x="40" y="151"/>
      <point x="52" y="171"/>
      <point x="67" y="171" type="curve" smooth="yes"/>
      <point x="122" y="171" type="line" smooth="yes"/>
      <point x="137" y="171"/>
      <point x="149" y="151"/>
      <point x="149" y="114" type="curve" smooth="yes"/>
      <point x="149" y="57" type="line" smooth="yes"/>
      <point x="149" y="20"/>
      <point x="137" y="0"/>
      <point x="122" y="0" type="curve" smooth="yes"/>
    </contour>
  </outline>
</glyph>
<glyph name="copyright" format="1">
  <advance width="1401"/>
  <unicode hex="00A9"/>
  <outline>
    <contour>
      <point x="700" y="-15" type="curve" smooth="yes"/>
      <point x="282" y="-15"/>
      <point x="93" y="332"/>
      <point x="93" y="720" type="curve" smooth="yes"/>
      <point x="93" y="1108"/>
      <point x="282" y="1456"/>
      <point x="700" y="1456" type="curve" smooth="yes"/>
      <point x="1120" y="1456"/>
      <point x="1308" y="1108"/>
      <point x="1308" y="720" type="curve" smooth="yes"/>
      <point x="1308" y="332"/>
      <point x="1120" y="-15"/>
    </contour>
    <contour>
      <point x="703" y="80" type="curve" smooth="yes"/>
      <point x="1073" y="80"/>
      <point x="1206" y="412"/>
      <point x="1206" y="716" type="curve" smooth="yes"/>
      <point x="1206" y="1031"/>
      <point x="1073" y="1359"/>
      <point x="703" y="1359" type="curve" smooth="yes"/>
      <point x="332" y="1359"/>
      <point x="199" y="1031"/>
      <point x="199" y="716" type="curve" smooth="yes"/>
      <point x="199" y="412"/>
      <point x="332" y="80"/>
    </contour>
    <contour>
      <point x="717" y="338" type="curve" smooth="yes"/>
      <point x="557" y="338"/>
      <point x="413" y="457"/>
      <point x="413" y="728" type="curve" smooth="yes"/>
      <point x="413" y="1008"/>
      <point x="568" y="1114"/>
      <point x="708" y="1114" type="curve" smooth="yes"/>
      <point x="788" y="1114"/>
      <point x="851" y="1089"/>
      <point x="896" y="1051" type="curve" smooth="yes"/>
      <point x="902" y="1046"/>
      <point x="905" y="1035"/>
      <point x="905" y="1023" type="curve" smooth="yes"/>
      <point x="905" y="998"/>
      <point x="891" y="967"/>
      <point x="876" y="967" type="curve" smooth="yes"/>
      <point x="874" y="967"/>
      <point x="872" y="968"/>
      <point x="870" y="969" type="curve" smooth="yes"/>
      <point x="829" y="996"/>
      <point x="780" y="1022"/>
      <point x="727" y="1022" type="curve" smooth="yes"/>
      <point x="601" y="1022"/>
      <point x="515" y="921"/>
      <point x="515" y="727" type="curve" smooth="yes"/>
      <point x="515" y="513"/>
      <point x="613" y="431"/>
      <point x="726" y="431" type="curve" smooth="yes"/>
      <point x="795" y="431"/>
      <point x="822" y="452"/>
      <point x="864" y="472" type="curve" smooth="yes"/>
      <point x="866" y="473"/>
      <point x="868" y="473"/>
      <point x="870" y="473" type="curve" smooth="yes"/>
      <point x="887" y="473"/>
      <point x="903" y="442"/>
      <point x="903" y="416" type="curve" smooth="yes"/>
      <point x="903" y="403"/>
      <point x="899" y="391"/>
      <point x="889" y="386" type="curve" smooth="yes"/>
      <point x="828" y="353"/>
      <point x="792" y="338"/>
    </contour>
  </outline>
</glyph>
<glyph name="guillemotleft" format="1">
  <advance width="778"/>
  <unicode hex="00AB"/>
  <outline>
    <contour>
      <point x="696" y="225" type="line" smooth="yes"/>
      <point x="694" y="225"/>
      <point x="566" y="357"/>
      <point x="563" y="360" type="curve" smooth="yes"/>
      <point x="555" y="369"/>
      <point x="401" y="537"/>
      <point x="401" y="558" type="curve"/>
      <point x="388" y="570"/>
      <point x="387" y="652"/>
      <point x="387" y="664" type="curve" smooth="yes"/>
      <point x="387" y="685"/>
      <point x="389" y="737"/>
      <point x="397" y="745" type="curve"/>
      <point x="397" y="757"/>
      <point x="523" y="887"/>
      <point x="536" y="900" type="curve" smooth="yes"/>
      <point x="538" y="902"/>
      <point x="690" y="1062"/>
      <point x="691" y="1062" type="curve" smooth="yes"/>
      <point x="692" y="1062"/>
      <point x="693" y="1063"/>
      <point x="694" y="1063" type="curve" smooth="yes"/>
      <point x="699" y="1063"/>
      <point x="703" y="1056"/>
      <point x="705" y="1046" type="curve"/>
      <point x="709" y="1046"/>
      <point x="711" y="975"/>
      <point x="711" y="961" type="curve" smooth="yes"/>
      <point x="711" y="940"/>
      <point x="707" y="912"/>
      <point x="700" y="903" type="curve"/>
      <point x="700" y="880"/>
      <point x="620" y="809"/>
      <point x="610" y="798" type="curve" smooth="yes"/>
      <point x="608" y="797"/>
      <point x="476" y="653"/>
      <point x="476" y="650" type="curve" smooth="yes"/>
      <point x="475" y="646"/>
      <point x="475" y="640"/>
      <point x="477" y="636" type="curve"/>
      <point x="477" y="633"/>
      <point x="554" y="559"/>
      <point x="556" y="558" type="curve" smooth="yes"/>
      <point x="563" y="549"/>
      <point x="698" y="402"/>
      <point x="698" y="381" type="curve"/>
      <point x="709" y="371"/>
      <point x="711" y="300"/>
      <point x="711" y="276" type="curve" smooth="yes"/>
      <point x="711" y="264"/>
      <point x="707" y="240"/>
      <point x="704" y="240" type="curve"/>
      <point x="703" y="228"/>
      <point x="700" y="225"/>
      <point x="697" y="225" type="curve" smooth="yes"/>
    </contour>
    <contour>
      <point x="387" y="226" type="curve" smooth="yes"/>
      <point x="385" y="226"/>
      <point x="256" y="357"/>
      <point x="253" y="360" type="curve" smooth="yes"/>
      <point x="245" y="369"/>
      <point x="91" y="537"/>
      <point x="91" y="558" type="curve"/>
      <point x="79" y="570"/>
      <point x="77" y="652"/>
      <point x="77" y="664" type="curve" smooth="yes"/>
      <point x="77" y="685"/>
      <point x="79" y="737"/>
      <point x="88" y="745" type="curve"/>
      <point x="88" y="757"/>
      <point x="214" y="887"/>
      <point x="227" y="900" type="curve" smooth="yes"/>
      <point x="228" y="902"/>
      <point x="380" y="1062"/>
      <point x="381" y="1062" type="curve" smooth="yes"/>
      <point x="382" y="1062"/>
      <point x="383" y="1063"/>
      <point x="384" y="1063" type="curve" smooth="yes"/>
      <point x="390" y="1063"/>
      <point x="394" y="1056"/>
      <point x="396" y="1046" type="curve"/>
      <point x="400" y="1046"/>
      <point x="402" y="975"/>
      <point x="402" y="961" type="curve" smooth="yes"/>
      <point x="402" y="940"/>
      <point x="397" y="912"/>
      <point x="391" y="903" type="curve"/>
      <point x="391" y="880"/>
      <point x="311" y="809"/>
      <point x="300" y="798" type="curve" smooth="yes"/>
      <point x="299" y="797"/>
      <point x="167" y="653"/>
      <point x="167" y="650" type="curve" smooth="yes"/>
      <point x="166" y="646"/>
      <point x="166" y="640"/>
      <point x="167" y="636" type="curve" smooth="yes"/>
      <point x="167" y="633"/>
      <point x="245" y="559"/>
      <point x="247" y="558" type="curve"/>
      <point x="253" y="549"/>
      <point x="388" y="402"/>
      <point x="388" y="381" type="curve"/>
      <point x="399" y="371"/>
      <point x="402" y="300"/>
      <point x="402" y="276" type="curve" smooth="yes"/>
      <point x="402" y="264"/>
      <point x="398" y="240"/>
      <point x="395" y="240" type="curve"/>
      <point x="394" y="229"/>
      <point x="392" y="225"/>
      <point x="389" y="225" type="curve" smooth="yes"/>
      <point x="388" y="225"/>
      <point x="388" y="226"/>
    </contour>
  </outline>
</glyph>
<glyph name="logicalnot" format="1">
  <advance width="1012"/>
  <unicode hex="00AC"/>
  <outline>
    <contour>
      <point x="777" y="261" type="line" smooth="yes"/>
      <point x="747" y="261"/>
      <point x="731" y="278"/>
      <point x="731" y="320" type="curve" smooth="yes"/>
      <point x="731" y="545" type="line" smooth="yes"/>
      <point x="731" y="565"/>
      <point x="720" y="574"/>
      <point x="706" y="574" type="curve" smooth="yes"/>
      <point x="176" y="574" type="line" smooth="yes"/>
      <point x="148" y="574"/>
      <point x="131" y="585"/>
      <point x="131" y="621" type="curve" smooth="yes"/>
      <point x="131" y="665" type="line" smooth="yes"/>
      <point x="131" y="702"/>
      <point x="148" y="713"/>
      <point x="176" y="713" type="curve" smooth="yes"/>
      <point x="836" y="713" type="line" smooth="yes"/>
      <point x="864" y="713"/>
      <point x="888" y="699"/>
      <point x="888" y="662" type="curve" smooth="yes"/>
      <point x="888" y="320" type="line" smooth="yes"/>
      <point x="888" y="278"/>
      <point x="872" y="261"/>
      <point x="843" y="261" type="curve" smooth="yes"/>
    </contour>
  </outline>
</glyph>
<glyph name="registered" format="1">
  <advance width="1401"/>
  <unicode hex="00AE"/>
  <outline>
    <contour>
      <point x="700" y="-15" type="curve" smooth="yes"/>
      <point x="282" y="-15"/>
      <point x="93" y="332"/>
      <point x="93" y="720" type="curve" smooth="yes"/>
      <point x="93" y="1108"/>
      <point x="282" y="1456"/>
      <point x="700" y="1456" type="curve" smooth="yes"/>
      <point x="1120" y="1456"/>
      <point x="1308" y="1108"/>
      <point x="1308" y="720" type="curve" smooth="yes"/>
      <point x="1308" y="332"/>
      <point x="1120" y="-15"/>
    </contour>
    <contour>
      <point x="703" y="80" type="curve" smooth="yes"/>
      <point x="1073" y="80"/>
      <point x="1206" y="412"/>
      <point x="1206" y="716" type="curve" smooth="yes"/>
      <point x="1206" y="1031"/>
      <point x="1073" y="1359"/>
      <point x="703" y="1359" type="curve" smooth="yes"/>
      <point x="332" y="1359"/>
      <point x="199" y="1031"/>
      <point x="199" y="716" type="curve" smooth="yes"/>
      <point x="199" y="412"/>
      <point x="332" y="80"/>
    </contour>
    <contour>
      <point x="585" y="774" type="curve" smooth="yes"/>
      <point x="726" y="774" type="line" smooth="yes"/>
      <point x="806" y="774"/>
      <point x="838" y="801"/>
      <point x="838" y="905" type="curve" smooth="yes"/>
      <point x="838" y="1025"/>
      <point x="786" y="1035"/>
      <point x="699" y="1035" type="curve" smooth="yes"/>
      <point x="586" y="1035" type="line" smooth="yes"/>
      <point x="582" y="1035"/>
      <point x="580" y="1030"/>
      <point x="580" y="1024" type="curve" smooth="yes"/>
      <point x="580" y="785" type="line" smooth="yes"/>
      <point x="580" y="779"/>
      <point x="582" y="774"/>
    </contour>
    <contour>
      <point x="505" y="346" type="line" smooth="yes"/>
      <point x="495" y="346"/>
      <point x="488" y="356"/>
      <point x="488" y="376" type="curve" smooth="yes"/>
      <point x="488" y="1080" type="line" smooth="yes"/>
      <point x="488" y="1103"/>
      <point x="495" y="1111"/>
      <point x="505" y="1111" type="curve" smooth="yes"/>
      <point x="690" y="1111" type="line" smooth="yes"/>
      <point x="816" y="1111"/>
      <point x="926" y="1102"/>
      <point x="926" y="906" type="curve" smooth="yes"/>
      <point x="926" y="797"/>
      <point x="888" y="745"/>
      <point x="828" y="731" type="curve" smooth="yes"/>
      <point x="826" y="731"/>
      <point x="823" y="727"/>
      <point x="828" y="726" type="curve" smooth="yes"/>
      <point x="880" y="706"/>
      <point x="926" y="658"/>
      <point x="928" y="538" type="curve" smooth="yes"/>
      <point x="929" y="525"/>
      <point x="930" y="379"/>
      <point x="930" y="375" type="curve" smooth="yes"/>
      <point x="930" y="356"/>
      <point x="925" y="346"/>
      <point x="918" y="346" type="curve" smooth="yes"/>
      <point x="857" y="346" type="line" smooth="yes"/>
      <point x="845" y="346"/>
      <point x="842" y="356"/>
      <point x="841" y="381" type="curve"/>
      <point x="841" y="420"/>
      <point x="832" y="596"/>
      <point x="827" y="605" type="curve"/>
      <point x="819" y="684"/>
      <point x="776" y="695"/>
      <point x="710" y="695" type="curve" smooth="yes"/>
      <point x="586" y="695" type="line" smooth="yes"/>
      <point x="582" y="695"/>
      <point x="580" y="689"/>
      <point x="580" y="682" type="curve" smooth="yes"/>
      <point x="580" y="376" type="line" smooth="yes"/>
      <point x="580" y="356"/>
      <point x="574" y="346"/>
      <point x="564" y="346" type="curve" smooth="yes"/>
    </contour>
  </outline>
</glyph>
<glyph name="degree" format="1">
  <advance width="1061"/>
  <unicode hex="00B0"/>
  <outline>
    <contour>
      <point x="539" y="1075" type="curve" smooth="yes"/>
      <point x="468" y="1075"/>
      <point x="355" y="1115"/>
      <point x="355" y="1256" type="curve" smooth="yes"/>
      <point x="355" y="1402"/>
      <point x="461" y="1438"/>
      <point x="539" y="1438" type="curve" smooth="yes"/>
      <point x="615" y="1438"/>
      <point x="721" y="1402"/>
      <point x="721" y="1256" type="curve" smooth="yes"/>
      <point x="721" y="1116"/>
      <point x="608" y="1075"/>
    </contour>
    <contour>
      <point x="539" y="1137" type="curve" smooth="yes"/>
      <point x="588" y="1137"/>
      <point x="646" y="1167"/>
      <point x="646" y="1256" type="curve" smooth="yes"/>
      <point x="646" y="1353"/>
      <point x="585" y="1375"/>
      <point x="539" y="1375" type="curve" smooth="yes"/>
      <point x="491" y="1375"/>
      <point x="430" y="1353"/>
      <point x="430" y="1256" type="curve" smooth="yes"/>
      <point x="430" y="1168"/>
      <point x="488" y="1137"/>
    </contour>
  </outline>
</glyph>
<glyph name="acute" format="1">
  <advance width="596"/>
  <unicode hex="00B4"/>
  <outline>
    <contour>
      <point x="369" y="1168" type="line" smooth="yes"/>
      <point x="359" y="1168"/>
      <point x="354" y="1173"/>
      <point x="354" y="1200" type="curve" smooth="yes"/>
      <point x="354" y="1209"/>
      <point x="354" y="1221"/>
      <point x="355" y="1235" type="curve" smooth="yes"/>
      <point x="376" y="1554" type="line" smooth="yes"/>
      <point x="379" y="1597"/>
      <point x="386" y="1609"/>
      <point x="402" y="1609" type="curve" smooth="yes"/>
      <point x="475" y="1609" type="line" smooth="yes"/>
      <point x="481" y="1609"/>
      <point x="485" y="1597"/>
      <point x="485" y="1581" type="curve" smooth="yes"/>
      <point x="485" y="1570"/>
      <point x="483" y="1556"/>
      <point x="481" y="1544" type="curve" smooth="yes"/>
      <point x="418" y="1207" type="line" smooth="yes"/>
      <point x="415" y="1190"/>
      <point x="412" y="1168"/>
      <point x="399" y="1168" type="curve" smooth="yes"/>
    </contour>
  </outline>
</glyph>
<glyph name="uni00B9" format="1">
  <advance width="341"/>
  <unicode hex="00B9"/>
  <outline>
    <contour>
      <point x="164" y="288" type="line" smooth="yes"/>
      <point x="153" y="288"/>
      <point x="146" y="308"/>
      <point x="146" y="342" type="curve" smooth="yes"/>
      <point x="146" y="1262" type="line" smooth="yes"/>
      <point x="146" y="1278"/>
      <point x="141" y="1285"/>
      <point x="135" y="1283" type="curve" smooth="yes"/>
      <point x="135" y="1283"/>
      <point x="66" y="1266"/>
      <point x="65" y="1266" type="curve" smooth="yes"/>
      <point x="54" y="1264"/>
      <point x="47" y="1270"/>
      <point x="47" y="1296" type="curve" smooth="yes"/>
      <point x="47" y="1358" type="line" smooth="yes"/>
      <point x="47" y="1379"/>
      <point x="56" y="1385"/>
      <point x="66" y="1387" type="curve" smooth="yes"/>
      <point x="248" y="1435" type="line" smooth="yes"/>
      <point x="252" y="1436"/>
      <point x="256" y="1437"/>
      <point x="259" y="1437" type="curve" smooth="yes"/>
      <point x="269" y="1437"/>
      <point x="275" y="1429"/>
      <point x="275" y="1403" type="curve" smooth="yes"/>
      <point x="275" y="342" type="line" smooth="yes"/>
      <point x="275" y="308"/>
      <point x="266" y="288"/>
      <point x="255" y="288" type="curve" smooth="yes"/>
    </contour>
  </outline>
</glyph>
<glyph name="ordmasculine" format="1">
  <advance width="739"/>
  <unicode hex="00BA"/>
  <outline>
    <contour>
      <point x="370" y="705" type="curve" smooth="yes"/>
      <point x="436" y="705"/>
      <point x="485" y="749"/>
      <point x="485" y="1028" type="curve" smooth="yes"/>
      <point x="485" y="1309"/>
      <point x="434" y="1348"/>
      <point x="370" y="1348" type="curve" smooth="yes"/>
      <point x="305" y="1348"/>
      <point x="255" y="1308"/>
      <point x="255" y="1028" type="curve" smooth="yes"/>
      <point x="255" y="750"/>
      <point x="303" y="705"/>
    </contour>
    <contour>
      <point x="371" y="615" type="curve" smooth="yes"/>
      <point x="268" y="615"/>
      <point x="139" y="653"/>
      <point x="139" y="1028" type="curve" smooth="yes"/>
      <point x="139" y="1405"/>
      <point x="268" y="1438"/>
      <point x="371" y="1438" type="curve" smooth="yes"/>
      <point x="473" y="1438"/>
      <point x="600" y="1405"/>
      <point x="600" y="1028" type="curve" smooth="yes"/>
      <point x="600" y="653"/>
      <point x="473" y="615"/>
    </contour>
  </outline>
</glyph>
<glyph name="onehalf" format="1">
  <advance width="1788"/>
  <unicode hex="00BD"/>
  <outline>
    <contour>
      <point x="1508" y="291" type="curve" smooth="yes"/>
      <point x="1113" y="291" type="line" smooth="yes"/>
      <point x="1100" y="291"/>
      <point x="1093" y="303"/>
      <point x="1093" y="337" type="curve" smooth="yes"/>
      <point x="1093" y="341"/>
      <point x="1093" y="382"/>
      <point x="1094" y="386" type="curve" smooth="yes"/>
      <point x="1112" y="798"/>
      <point x="1434" y="940"/>
      <point x="1434" y="1183" type="curve" smooth="yes"/>
      <point x="1434" y="1288"/>
      <point x="1381" y="1347"/>
      <point x="1300" y="1347" type="curve" smooth="yes"/>
      <point x="1205" y="1347"/>
      <point x="1157" y="1315"/>
      <point x="1107" y="1297" type="curve"/>
      <point x="1099" y="1289"/>
      <point x="1096" y="1295"/>
      <point x="1095" y="1305" type="curve"/>
      <point x="1086" y="1328"/>
      <point x="1079" y="1359"/>
      <point x="1079" y="1369" type="curve" smooth="yes"/>
      <point x="1079" y="1384"/>
      <point x="1082" y="1394"/>
      <point x="1086" y="1399" type="curve"/>
      <point x="1148" y="1433"/>
      <point x="1218" y="1453"/>
      <point x="1302" y="1453" type="curve" smooth="yes"/>
      <point x="1428" y="1453"/>
      <point x="1560" y="1398"/>
      <point x="1560" y="1191" type="curve" smooth="yes"/>
      <point x="1560" y="912"/>
      <point x="1273" y="798"/>
      <point x="1222" y="431" type="curve"/>
      <point x="1220" y="425"/>
      <point x="1224" y="387"/>
      <point x="1230" y="387" type="curve" smooth="yes"/>
      <point x="1509" y="387" type="line" smooth="yes"/>
      <point x="1518" y="387"/>
      <point x="1523" y="381"/>
      <point x="1523" y="353" type="curve" smooth="yes"/>
      <point x="1523" y="324" type="line" smooth="yes"/>
      <point x="1523" y="297"/>
      <point x="1518" y="291"/>
    </contour>
    <contour>
      <point x="646" y="127" type="line" smooth="yes"/>
      <point x="643" y="127"/>
      <point x="639" y="136"/>
      <point x="639" y="146" type="curve" smooth="yes"/>
      <point x="639" y="148"/>
      <point x="640" y="151"/>
      <point x="640" y="153" type="curve" smooth="yes"/>
      <point x="881" y="1582" type="line" smooth="yes"/>
      <point x="883" y="1598"/>
      <point x="890" y="1609"/>
      <point x="896" y="1609" type="curve" smooth="yes"/>
      <point x="955" y="1609" type="line" smooth="yes"/>
      <point x="959" y="1609"/>
      <point x="962" y="1600"/>
      <point x="962" y="1590" type="curve" smooth="yes"/>
      <point x="962" y="1587"/>
      <point x="961" y="1585"/>
      <point x="961" y="1582" type="curve" smooth="yes"/>
      <point x="721" y="153" type="line" smooth="yes"/>
      <point x="719" y="137"/>
      <point x="712" y="126"/>
      <point x="706" y="126" type="curve" smooth="yes"/>
    </contour>
    <contour>
      <point x="356" y="291" type="line" smooth="yes"/>
      <point x="345" y="291"/>
      <point x="338" y="311"/>
      <point x="338" y="345" type="curve" smooth="yes"/>
      <point x="338" y="1265" type="line" smooth="yes"/>
      <point x="338" y="1281"/>
      <point x="332" y="1288"/>
      <point x="326" y="1286" type="curve" smooth="yes"/>
      <point x="326" y="1286"/>
      <point x="258" y="1269"/>
      <point x="257" y="1269" type="curve" smooth="yes"/>
      <point x="246" y="1267"/>
      <point x="239" y="1273"/>
      <point x="239" y="1299" type="curve" smooth="yes"/>
      <point x="239" y="1361" type="line" smooth="yes"/>
      <point x="239" y="1382"/>
      <point x="248" y="1388"/>
      <point x="258" y="1390" type="curve" smooth="yes"/>
      <point x="440" y="1438" type="line" smooth="yes"/>
      <point x="444" y="1439"/>
      <point x="448" y="1440"/>
      <point x="451" y="1440" type="curve" smooth="yes"/>
      <point x="461" y="1440"/>
      <point x="466" y="1432"/>
      <point x="466" y="1406" type="curve" smooth="yes"/>
      <point x="466" y="345" type="line" smooth="yes"/>
      <point x="466" y="311"/>
      <point x="458" y="291"/>
      <point x="447" y="291" type="curve" smooth="yes"/>
    </contour>
  </outline>
</glyph>
<glyph name="multiply" format="1">
  <advance width="801"/>
  <unicode hex="00D7"/>
  <outline>
    <contour>
      <point x="200" y="357" type="curve" smooth="yes"/>
      <point x="162" y="396" type="line" smooth="yes"/>
      <point x="156" y="402"/>
      <point x="151" y="407"/>
      <point x="151" y="415" type="curve" smooth="yes"/>
      <point x="151" y="423"/>
      <point x="156" y="434"/>
      <point x="172" y="450" type="curve" smooth="yes"/>
      <point x="323" y="601" type="line"/>
      <point x="172" y="753" type="line" smooth="yes"/>
      <point x="157" y="768"/>
      <point x="151" y="778"/>
      <point x="151" y="787" type="curve" smooth="yes"/>
      <point x="151" y="795"/>
      <point x="157" y="802"/>
      <point x="163" y="808" type="curve" smooth="yes"/>
      <point x="201" y="846" type="line" smooth="yes"/>
      <point x="207" y="852"/>
      <point x="212" y="857"/>
      <point x="220" y="857" type="curve" smooth="yes"/>
      <point x="228" y="857"/>
      <point x="239" y="852"/>
      <point x="255" y="836" type="curve" smooth="yes"/>
      <point x="407" y="685" type="line"/>
      <point x="558" y="836" type="line" smooth="yes"/>
      <point x="573" y="851"/>
      <point x="584" y="856"/>
      <point x="592" y="856" type="curve" smooth="yes"/>
      <point x="600" y="856"/>
      <point x="606" y="852"/>
      <point x="612" y="846" type="curve" smooth="yes"/>
      <point x="650" y="808" type="line" smooth="yes"/>
      <point x="656" y="802"/>
      <point x="662" y="795"/>
      <point x="662" y="787" type="curve" smooth="yes"/>
      <point x="662" y="778"/>
      <point x="656" y="768"/>
      <point x="641" y="753" type="curve" smooth="yes"/>
      <point x="490" y="601" type="line"/>
      <point x="641" y="450" type="line" smooth="yes"/>
      <point x="657" y="434"/>
      <point x="662" y="423"/>
      <point x="662" y="415" type="curve" smooth="yes"/>
      <point x="662" y="407"/>
      <point x="657" y="402"/>
      <point x="651" y="396" type="curve" smooth="yes"/>
      <point x="613" y="358" type="line" smooth="yes"/>
      <point x="607" y="352"/>
      <point x="600" y="346"/>
      <point x="592" y="346" type="curve" smooth="yes"/>
      <point x="583" y="346"/>
      <point x="573" y="352"/>
      <point x="558" y="367" type="curve" smooth="yes"/>
      <point x="407" y="518" type="line"/>
      <point x="255" y="366" type="line" smooth="yes"/>
      <point x="240" y="351"/>
      <point x="229" y="346"/>
      <point x="221" y="346" type="curve" smooth="yes"/>
      <point x="213" y="346"/>
      <point x="206" y="351"/>
    </contour>
  </outline>
</glyph>
<glyph name="Dcroat" format="1">
  <advance width="919"/>
  <unicode hex="0110"/>
  <outline>
    <contour>
      <point x="136" y="0" type="line" smooth="yes"/>
      <point x="122" y="0"/>
      <point x="112" y="4"/>
      <point x="112" y="42" type="curve" smooth="yes"/>
      <point x="112" y="680" type="line"/>
      <point x="39" y="680" type="line" smooth="yes"/>
      <point x="19" y="680"/>
      <point x="8" y="688"/>
      <point x="8" y="714" type="curve" smooth="yes"/>
      <point x="8" y="736" type="line" smooth="yes"/>
      <point x="8" y="764"/>
      <point x="19" y="772"/>
      <point x="39" y="772" type="curve" smooth="yes"/>
      <point x="112" y="772" type="line"/>
      <point x="112" y="1402" type="line" smooth="yes"/>
      <point x="112" y="1434"/>
      <point x="122" y="1438"/>
      <point x="136" y="1438" type="curve" smooth="yes"/>
      <point x="462" y="1438" type="line" smooth="yes"/>
      <point x="693" y="1438"/>
      <point x="832" y="1279"/>
      <point x="832" y="726" type="curve" smooth="yes"/>
      <point x="832" y="86"/>
      <point x="706" y="0"/>
      <point x="444" y="0" type="curve" smooth="yes"/>
    </contour>
    <contour>
      <point x="285" y="128" type="curve" smooth="yes"/>
      <point x="438" y="128" type="line" smooth="yes"/>
      <point x="617" y="128"/>
      <point x="672" y="252"/>
      <point x="672" y="725" type="curve" smooth="yes"/>
      <point x="672" y="1162"/>
      <point x="601" y="1310"/>
      <point x="443" y="1310" type="curve" smooth="yes"/>
      <point x="284" y="1310" type="line" smooth="yes"/>
      <point x="278" y="1310"/>
      <point x="273" y="1304"/>
      <point x="273" y="1290" type="curve" smooth="yes"/>
      <point x="273" y="772" type="line"/>
      <point x="439" y="772" type="line" smooth="yes"/>
      <point x="458" y="772"/>
      <point x="470" y="764"/>
      <point x="470" y="738" type="curve" smooth="yes"/>
      <point x="470" y="715" type="line" smooth="yes"/>
      <point x="470" y="688"/>
      <point x="458" y="680"/>
      <point x="439" y="680" type="curve" smooth="yes"/>
      <point x="273" y="680" type="line"/>
      <point x="273" y="150" type="line" smooth="yes"/>
      <point x="273" y="133"/>
      <point x="277" y="128"/>
    </contour>
  </outline>
</glyph>
<glyph name="Lslash" format="1">
  <advance width="617"/>
  <unicode hex="0141"/>
  <outline>
    <contour>
      <point x="548" y="0" type="curve" smooth="yes"/>
      <point x="136" y="0" type="line" smooth="yes"/>
      <point x="122" y="0"/>
      <point x="112" y="4"/>
      <point x="112" y="47" type="curve" smooth="yes"/>
      <point x="112" y="679" type="line"/>
      <point x="33" y="657" type="line" smooth="yes"/>
      <point x="19" y="653"/>
      <point x="8" y="659"/>
      <point x="8" y="692" type="curve" smooth="yes"/>
      <point x="8" y="756" type="line" smooth="yes"/>
      <point x="8" y="789"/>
      <point x="19" y="788"/>
      <point x="33" y="792" type="curve" smooth="yes"/>
      <point x="112" y="814" type="line"/>
      <point x="112" y="1391" type="line" smooth="yes"/>
      <point x="112" y="1434"/>
      <point x="122" y="1438"/>
      <point x="136" y="1438" type="curve" smooth="yes"/>
      <point x="249" y="1438" type="line" smooth="yes"/>
      <point x="263" y="1438"/>
      <point x="273" y="1434"/>
      <point x="273" y="1391" type="curve" smooth="yes"/>
      <point x="273" y="856" type="line"/>
      <point x="439" y="903" type="line" smooth="yes"/>
      <point x="453" y="907"/>
      <point x="464" y="900"/>
      <point x="464" y="868" type="curve" smooth="yes"/>
      <point x="464" y="803" type="line" smooth="yes"/>
      <point x="464" y="771"/>
      <point x="453" y="771"/>
      <point x="439" y="768" type="curve" smooth="yes"/>
      <point x="273" y="721" type="line"/>
      <point x="273" y="149" type="line" smooth="yes"/>
      <point x="273" y="129"/>
      <point x="279" y="128"/>
      <point x="286" y="128" type="curve" smooth="yes"/>
      <point x="548" y="128" type="line" smooth="yes"/>
      <point x="562" y="128"/>
      <point x="573" y="127"/>
      <point x="573" y="94" type="curve" smooth="yes"/>
      <point x="573" y="36" type="line" smooth="yes"/>
      <point x="573" y="2"/>
      <point x="562" y="0"/>
    </contour>
  </outline>
</glyph>
<glyph name="oe" format="1">
  <advance width="1079"/>
  <unicode hex="0153"/>
  <outline>
    <contour>
      <point x="355" y="102" type="curve" smooth="yes"/>
      <point x="437" y="102"/>
      <point x="493" y="156"/>
      <point x="493" y="505" type="curve" smooth="yes"/>
      <point x="493" y="856"/>
      <point x="435" y="905"/>
      <point x="355" y="905" type="curve" smooth="yes"/>
      <point x="274" y="905"/>
      <point x="216" y="855"/>
      <point x="216" y="505" type="curve" smooth="yes"/>
      <point x="216" y="157"/>
      <point x="271" y="102"/>
    </contour>
    <contour>
      <point x="636" y="562" type="curve" smooth="yes"/>
      <point x="890" y="562" type="line" smooth="yes"/>
      <point x="892" y="562"/>
      <point x="892" y="574"/>
      <point x="892" y="580" type="curve" smooth="yes"/>
      <point x="886" y="783"/>
      <point x="854" y="906"/>
      <point x="765" y="906" type="curve" smooth="yes"/>
      <point x="699" y="906"/>
      <point x="645" y="842"/>
      <point x="632" y="616" type="curve" smooth="yes"/>
      <point x="632" y="607"/>
      <point x="632" y="562"/>
    </contour>
    <contour>
      <point x="995" y="246" type="line" smooth="yes"/>
      <point x="995" y="110"/>
      <point x="933" y="-11"/>
      <point x="780" y="-11" type="curve" smooth="yes"/>
      <point x="683" y="-11"/>
      <point x="612" y="43"/>
      <point x="566" y="179" type="curve"/>
      <point x="523" y="36"/>
      <point x="445" y="-11"/>
      <point x="360" y="-11" type="curve" smooth="yes"/>
      <point x="231" y="-11"/>
      <point x="81" y="35"/>
      <point x="81" y="505" type="curve" smooth="yes"/>
      <point x="81" y="975"/>
      <point x="229" y="1018"/>
      <point x="358" y="1018" type="curve" smooth="yes"/>
      <point x="439" y="1018"/>
      <point x="515" y="975"/>
      <point x="563" y="845" type="curve"/>
      <point x="611" y="966"/>
      <point x="677" y="1019"/>
      <point x="767" y="1019" type="curve" smooth="yes"/>
      <point x="911" y="1019"/>
      <point x="997" y="895"/>
      <point x="1004" y="568" type="curve" smooth="yes"/>
      <point x="1004" y="559"/>
      <point x="1001" y="473"/>
      <point x="973" y="473" type="curve" smooth="yes"/>
      <point x="639" y="473" type="line" smooth="yes"/>
      <point x="634" y="473"/>
      <point x="631" y="463"/>
      <point x="631" y="452" type="curve" smooth="yes"/>
      <point x="632" y="264"/>
      <point x="670" y="102"/>
      <point x="783" y="102" type="curve" smooth="yes"/>
      <point x="889" y="102"/>
      <point x="897" y="217"/>
      <point x="904" y="287" type="curve" smooth="yes"/>
      <point x="905" y="299"/>
      <point x="910" y="307"/>
      <point x="917" y="307" type="curve" smooth="yes"/>
      <point x="976" y="307" type="line" smooth="yes"/>
      <point x="993" y="307"/>
      <point x="995" y="291"/>
      <point x="995" y="271" type="curve" smooth="yes"/>
    </contour>
  </outline>
</glyph>
<glyph name="circumflex" format="1">
  <advance width="307"/>
  <unicode hex="02C6"/>
  <outline>
    <contour>
      <point x="62" y="1230" type="curve" smooth="yes"/>
      <point x="53" y="1230"/>
      <point x="29" y="1235"/>
      <point x="29" y="1242" type="curve"/>
      <point x="21" y="1243"/>
      <point x="19" y="1251"/>
      <point x="19" y="1261" type="curve" smooth="yes"/>
      <point x="19" y="1268"/>
      <point x="20" y="1276"/>
      <point x="22" y="1282" type="curve" smooth="yes"/>
      <point x="89" y="1462" type="line"/>
      <point x="106" y="1512"/>
      <point x="122" y="1535"/>
      <point x="141" y="1535" type="curve" smooth="yes"/>
      <point x="164" y="1535" type="line" smooth="yes"/>
      <point x="184" y="1535"/>
      <point x="199" y="1512"/>
      <point x="217" y="1462" type="curve" smooth="yes"/>
      <point x="283" y="1282" type="line" smooth="yes"/>
      <point x="285" y="1275"/>
      <point x="287" y="1265"/>
      <point x="287" y="1258" type="curve" smooth="yes"/>
      <point x="287" y="1249"/>
      <point x="284" y="1243"/>
      <point x="276" y="1242" type="curve"/>
      <point x="276" y="1235"/>
      <point x="253" y="1230"/>
      <point x="244" y="1230" type="curve" smooth="yes"/>
      <point x="231" y="1230"/>
      <point x="221" y="1241"/>
      <point x="212" y="1260" type="curve" smooth="yes"/>
      <point x="163" y="1375" type="line" smooth="yes"/>
      <point x="159" y="1384"/>
      <point x="156" y="1389"/>
      <point x="152" y="1389" type="curve" smooth="yes"/>
      <point x="149" y="1389"/>
      <point x="146" y="1384"/>
      <point x="142" y="1375" type="curve" smooth="yes"/>
      <point x="93" y="1260" type="line" smooth="yes"/>
      <point x="84" y="1241"/>
      <point x="74" y="1230"/>
    </contour>
  </outline>
</glyph>
<glyph name="caron" format="1">
  <advance width="307"/>
  <unicode hex="02C7"/>
  <outline>
    <contour>
      <point x="141" y="1230" type="line" smooth="yes"/>
      <point x="122" y="1230"/>
      <point x="106" y="1253"/>
      <point x="89" y="1303" type="curve"/>
      <point x="22" y="1483" type="line" smooth="yes"/>
      <point x="20" y="1490"/>
      <point x="18" y="1499"/>
      <point x="18" y="1506" type="curve" smooth="yes"/>
      <point x="18" y="1515"/>
      <point x="21" y="1521"/>
      <point x="29" y="1522" type="curve"/>
      <point x="29" y="1530"/>
      <point x="52" y="1535"/>
      <point x="61" y="1535" type="curve" smooth="yes"/>
      <point x="74" y="1535"/>
      <point x="84" y="1524"/>
      <point x="93" y="1504" type="curve" smooth="yes"/>
      <point x="142" y="1390" type="line" smooth="yes"/>
      <point x="146" y="1381"/>
      <point x="149" y="1376"/>
      <point x="153" y="1376" type="curve" smooth="yes"/>
      <point x="156" y="1376"/>
      <point x="159" y="1381"/>
      <point x="163" y="1390" type="curve" smooth="yes"/>
      <point x="212" y="1504" type="line" smooth="yes"/>
      <point x="221" y="1524"/>
      <point x="231" y="1535"/>
      <point x="243" y="1535" type="curve" smooth="yes"/>
      <point x="252" y="1535"/>
      <point x="276" y="1530"/>
      <point x="276" y="1522" type="curve"/>
      <point x="284" y="1521"/>
      <point x="286" y="1513"/>
      <point x="286" y="1504" type="curve" smooth="yes"/>
      <point x="286" y="1497"/>
      <point x="285" y="1489"/>
      <point x="283" y="1483" type="curve" smooth="yes"/>
      <point x="216" y="1303" type="line"/>
      <point x="199" y="1253"/>
      <point x="183" y="1230"/>
      <point x="164" y="1230" type="curve" smooth="yes"/>
    </contour>
  </outline>
</glyph>
<glyph name="ring" format="1">
  <advance width="1061"/>
  <unicode hex="02DA"/>
  <outline>
    <contour>
      <point x="539" y="840" type="curve" smooth="yes"/>
      <point x="468" y="840"/>
      <point x="355" y="880"/>
      <point x="355" y="1021" type="curve" smooth="yes"/>
      <point x="355" y="1167"/>
      <point x="461" y="1203"/>
      <point x="539" y="1203" type="curve" smooth="yes"/>
      <point x="615" y="1203"/>
      <point x="721" y="1167"/>
      <point x="721" y="1021" type="curve" smooth="yes"/>
      <point x="721" y="881"/>
      <point x="608" y="840"/>
    </contour>
    <contour>
      <point x="539" y="902" type="curve" smooth="yes"/>
      <point x="588" y="902"/>
      <point x="646" y="932"/>
      <point x="646" y="1021" type="curve" smooth="yes"/>
      <point x="646" y="1118"/>
      <point x="585" y="1140"/>
      <point x="539" y="1140" type="curve" smooth="yes"/>
      <point x="491" y="1140"/>
      <point x="430" y="1118"/>
      <point x="430" y="1021" type="curve" smooth="yes"/>
      <point x="430" y="933"/>
      <point x="488" y="902"/>
    </contour>
  </outline>
</glyph>
<glyph name="emdash" format="1">
  <advance width="2048"/>
  <unicode hex="2014"/>
  <outline>
    <contour>
      <point x="120" y="489" type="line" smooth="yes"/>
      <point x="99" y="489"/>
      <point x="88" y="498"/>
      <point x="88" y="525" type="curve" smooth="yes"/>
      <point x="88" y="549" type="line" smooth="yes"/>
      <point x="88" y="577"/>
      <point x="99" y="586"/>
      <point x="120" y="586" type="curve" smooth="yes"/>
      <point x="1921" y="586" type="line" smooth="yes"/>
      <point x="1942" y="586"/>
      <point x="1954" y="577"/>
      <point x="1954" y="550" type="curve" smooth="yes"/>
      <point x="1954" y="526" type="line" smooth="yes"/>
      <point x="1954" y="498"/>
      <point x="1942" y="489"/>
      <point x="1921" y="489" type="curve" smooth="yes"/>
    </contour>
  </outline>
</glyph>
<glyph name="quoteright" format="1">
  <advance width="322"/>
  <unicode hex="2019"/>
  <outline>
    <contour>
      <point x="114" y="871" type="curve" smooth="yes"/>
      <point x="112" y="870"/>
      <point x="111" y="870"/>
      <point x="109" y="870" type="curve" smooth="yes"/>
      <point x="99" y="870"/>
      <point x="90" y="885"/>
      <point x="90" y="916" type="curve" smooth="yes"/>
      <point x="90" y="931" type="line" smooth="yes"/>
      <point x="90" y="985"/>
      <point x="94" y="981"/>
      <point x="113" y="1006" type="curve" smooth="yes"/>
      <point x="141" y="1045"/>
      <point x="156" y="1122"/>
      <point x="156" y="1164" type="curve" smooth="yes"/>
      <point x="156" y="1180"/>
      <point x="155" y="1191"/>
      <point x="150" y="1191" type="curve" smooth="yes"/>
      <point x="111" y="1191" type="line" smooth="yes"/>
      <point x="98" y="1191"/>
      <point x="90" y="1207"/>
      <point x="90" y="1245" type="curve" smooth="yes"/>
      <point x="90" y="1440" type="line" smooth="yes"/>
      <point x="90" y="1483"/>
      <point x="96" y="1501"/>
      <point x="111" y="1501" type="curve" smooth="yes"/>
      <point x="215" y="1501" type="line" smooth="yes"/>
      <point x="229" y="1501"/>
      <point x="241" y="1476"/>
      <point x="241" y="1433" type="curve" smooth="yes"/>
      <point x="241" y="1254" type="line" smooth="yes"/>
      <point x="241" y="1017"/>
      <point x="162" y="894"/>
    </contour>
  </outline>
</glyph>
<glyph name="guilsinglright" format="1">
  <advance width="494"/>
  <unicode hex="203A"/>
  <outline>
    <contour>
      <point x="89" y="223" type="curve" smooth="yes"/>
      <point x="83" y="223"/>
      <point x="77" y="236"/>
      <point x="77" y="261" type="curve" smooth="yes"/>
      <point x="77" y="341" type="line" smooth="yes"/>
      <point x="77" y="385"/>
      <point x="84" y="403"/>
      <point x="101" y="423" type="curve"/>
      <point x="310" y="620" type="line" smooth="yes"/>
      <point x="313" y="623"/>
      <point x="314" y="629"/>
      <point x="314" y="634" type="curve" smooth="yes"/>
      <point x="314" y="639"/>
      <point x="313" y="645"/>
      <point x="310" y="648" type="curve" smooth="yes"/>
      <point x="101" y="860" type="line"/>
      <point x="83" y="880"/>
      <point x="77" y="900"/>
      <point x="77" y="945" type="curve" smooth="yes"/>
      <point x="77" y="1025" type="line" smooth="yes"/>
      <point x="77" y="1052"/>
      <point x="83" y="1067"/>
      <point x="90" y="1067" type="curve" smooth="yes"/>
      <point x="93" y="1067"/>
      <point x="97" y="1064"/>
      <point x="101" y="1059" type="curve" smooth="yes"/>
      <point x="377" y="772" type="line" smooth="yes"/>
      <point x="398" y="750"/>
      <point x="401" y="721"/>
      <point x="401" y="687" type="curve" smooth="yes"/>
      <point x="402" y="584" type="line" smooth="yes"/>
      <point x="402" y="551"/>
      <point x="398" y="521"/>
      <point x="377" y="501" type="curve" smooth="yes"/>
      <point x="100" y="231" type="line" smooth="yes"/>
      <point x="96" y="227"/>
      <point x="92" y="223"/>
    </contour>
  </outline>
</glyph>
<glyph name="product" format="1">
  <advance width="918"/>
  <unicode hex="220F"/>
  <outline>
    <contour>
      <point x="137" y="0" type="line" smooth="yes"/>
      <point x="122" y="0"/>
      <point x="112" y="4"/>
      <point x="112" y="47" type="curve" smooth="yes"/>
      <point x="112" y="1391" type="line" smooth="yes"/>
      <point x="112" y="1434"/>
      <point x="122" y="1438"/>
      <point x="137" y="1438" type="curve" smooth="yes"/>
      <point x="782" y="1438" type="line" smooth="yes"/>
      <point x="797" y="1438"/>
      <point x="806" y="1434"/>
      <point x="806" y="1391" type="curve" smooth="yes"/>
      <point x="806" y="47" type="line" smooth="yes"/>
      <point x="806" y="4"/>
      <point x="797" y="0"/>
      <point x="782" y="0" type="curve" smooth="yes"/>
      <point x="671" y="0" type="line" smooth="yes"/>
      <point x="655" y="0"/>
      <point x="644" y="4"/>
      <point x="644" y="47" type="curve" smooth="yes"/>
      <point x="644" y="1287" type="line" smooth="yes"/>
      <point x="644" y="1302"/>
      <point x="640" y="1307"/>
      <point x="635" y="1307" type="curve" smooth="yes"/>
      <point x="282" y="1307" type="line" smooth="yes"/>
      <point x="278" y="1307"/>
      <point x="274" y="1302"/>
      <point x="274" y="1288" type="curve" smooth="yes"/>
      <point x="274" y="47" type="line" smooth="yes"/>
      <point x="274" y="4"/>
      <point x="263" y="0"/>
      <point x="248" y="0" type="curve" smooth="yes"/>
    </contour>
  </outline>
</glyph>
<glyph name="uni2215" format="1">
  <advance width="531"/>
  <unicode hex="2215"/>
  <outline>
    <contour>
      <point x="83" y="-205" type="line" smooth="yes"/>
      <point x="79" y="-205"/>
      <point x="75" y="-193"/>
      <point x="75" y="-180" type="curve" smooth="yes"/>
      <point x="75" y="-177"/>
      <point x="76" y="-175"/>
      <point x="76" y="-172" type="curve" smooth="yes"/>
      <point x="377" y="1614" type="line" smooth="yes"/>
      <point x="380" y="1634"/>
      <point x="388" y="1647"/>
      <point x="396" y="1647" type="curve" smooth="yes"/>
      <point x="470" y="1647" type="line" smooth="yes"/>
      <point x="475" y="1647"/>
      <point x="478" y="1637"/>
      <point x="478" y="1625" type="curve" smooth="yes"/>
      <point x="478" y="1621"/>
      <point x="478" y="1618"/>
      <point x="477" y="1614" type="curve" smooth="yes"/>
      <point x="177" y="-173" type="line" smooth="yes"/>
      <point x="174" y="-193"/>
      <point x="166" y="-206"/>
      <point x="159" y="-206" type="curve" smooth="yes"/>
    </contour>
  </outline>
</glyph>
<glyph name="notequal" format="1">
  <advance width="643"/>
  <unicode hex="2260"/>
  <outline>
    <contour>
      <point x="114" y="266" type="line" smooth="yes"/>
      <point x="110" y="266"/>
      <point x="106" y="279"/>
      <point x="106" y="293" type="curve" smooth="yes"/>
      <point x="106" y="296"/>
      <point x="105" y="298"/>
      <point x="106" y="301" type="curve" smooth="yes"/>
      <point x="189" y="515" type="line"/>
      <point x="93" y="515" type="line" smooth="yes"/>
      <point x="78" y="515"/>
      <point x="70" y="516"/>
      <point x="70" y="559" type="curve" smooth="yes"/>
      <point x="70" y="589" type="line" smooth="yes"/>
      <point x="70" y="632"/>
      <point x="78" y="634"/>
      <point x="93" y="634" type="curve" smooth="yes"/>
      <point x="235" y="634" type="line"/>
      <point x="296" y="790" type="line"/>
      <point x="93" y="790" type="line" smooth="yes"/>
      <point x="78" y="790"/>
      <point x="70" y="791"/>
      <point x="70" y="834" type="curve" smooth="yes"/>
      <point x="70" y="864" type="line" smooth="yes"/>
      <point x="70" y="907"/>
      <point x="78" y="909"/>
      <point x="93" y="909" type="curve" smooth="yes"/>
      <point x="342" y="909" type="line"/>
      <point x="410" y="1083" type="line" smooth="yes"/>
      <point x="418" y="1103"/>
      <point x="421" y="1118"/>
      <point x="428" y="1118" type="curve" smooth="yes"/>
      <point x="510" y="1118" type="line" smooth="yes"/>
      <point x="515" y="1118"/>
      <point x="518" y="1105"/>
      <point x="518" y="1091" type="curve" smooth="yes"/>
      <point x="518" y="1088"/>
      <point x="519" y="1086"/>
      <point x="518" y="1083" type="curve" smooth="yes"/>
      <point x="450" y="909" type="line"/>
      <point x="551" y="909" type="line" smooth="yes"/>
      <point x="566" y="909"/>
      <point x="574" y="907"/>
      <point x="574" y="864" type="curve" smooth="yes"/>
      <point x="574" y="834" type="line" smooth="yes"/>
      <point x="574" y="791"/>
      <point x="566" y="790"/>
      <point x="551" y="790" type="curve" smooth="yes"/>
      <point x="404" y="790" type="line"/>
      <point x="343" y="634" type="line"/>
      <point x="551" y="634" type="line" smooth="yes"/>
      <point x="566" y="634"/>
      <point x="574" y="632"/>
      <point x="574" y="589" type="curve" smooth="yes"/>
      <point x="574" y="559" type="line" smooth="yes"/>
      <point x="574" y="516"/>
      <point x="566" y="515"/>
      <point x="551" y="515" type="curve" smooth="yes"/>
      <point x="296" y="515" type="line"/>
      <point x="212" y="301" type="line" smooth="yes"/>
      <point x="205" y="281"/>
      <point x="203" y="266"/>
      <point x="196" y="266" type="curve" smooth="yes"/>
    </contour>
  </outline>
</glyph>
<glyph name="lozenge" format="1">
  <advance width="796"/>
  <unicode hex="25CA"/>
  <outline>
    <contour>
      <point x="400" y="47" type="curve" smooth="yes"/>
      <point x="401" y="47"/>
      <point x="402" y="48"/>
      <point x="403" y="52" type="curve" smooth="yes"/>
      <point x="538" y="673" type="line"/>
      <point x="406" y="1265" type="line" smooth="yes"/>
      <point x="406" y="1269"/>
      <point x="405" y="1270"/>
      <point x="404" y="1270" type="curve" smooth="yes"/>
      <point x="402" y="1270"/>
      <point x="401" y="1268"/>
      <point x="401" y="1265" type="curve" smooth="yes"/>
      <point x="257" y="667" type="line"/>
      <point x="397" y="52" type="line" smooth="yes"/>
      <point x="397" y="49"/>
      <point x="398" y="47"/>
    </contour>
    <contour>
      <point x="334" y="-133" type="line"/>
      <point x="318" y="-132"/>
      <point x="308" y="-122"/>
      <point x="298" y="-81" type="curve" smooth="yes"/>
      <point x="107" y="649" type="line" smooth="yes"/>
      <point x="106" y="653"/>
      <point x="106" y="658"/>
      <point x="106" y="663" type="curve" smooth="yes"/>
      <point x="106" y="668"/>
      <point x="106" y="674"/>
      <point x="107" y="679" type="curve" smooth="yes"/>
      <point x="296" y="1398" type="line" smooth="yes"/>
      <point x="306" y="1439"/>
      <point x="317" y="1449"/>
      <point x="333" y="1451" type="curve"/>
      <point x="468" y="1451" type="line"/>
      <point x="484" y="1449"/>
      <point x="495" y="1439"/>
      <point x="504" y="1398" type="curve"/>
      <point x="690" y="679" type="line" smooth="yes"/>
      <point x="691" y="675"/>
      <point x="692" y="670"/>
      <point x="692" y="666" type="curve" smooth="yes"/>
      <point x="692" y="660"/>
      <point x="691" y="654"/>
      <point x="691" y="649" type="curve"/>
      <point x="506" y="-81" type="line" smooth="yes"/>
      <point x="496" y="-122"/>
      <point x="486" y="-132"/>
      <point x="470" y="-133" type="curve"/>
    </contour>
  </outline>
</glyph>
<glyph name=".notdef" format="1">
  <advance width="349"/>
  <outline>
    <contour>
      <point x="35" y="-299" type="line"/>
      <point x="35" y="1475" type="line"/>
      <point x="314" y="1475" type="line"/>
      <point x="314" y="-299" type="line"/>
    </contour>
    <contour>
      <point x="70" y="-197" type="line"/>
      <point x="280" y="-197" type="line"/>
      <point x="280" y="1373" type="line"/>
      <point x="70" y="1373" type="line"/>
    </contour>
  </outline>
</glyph>
